<svg xmlns="http://www.w3.org/2000/svg" width="155.883" height="49.593" viewBox="0 0 155.883 49.593">
    <defs>
        <style>
            .cls-1{fill:#132650}
        </style>
    </defs>
    <g id="Group_10652" transform="translate(-197.963 -11027.976)">
        <path id="Path_10713" d="M611.656 11053.514c.432-.131.545-.5.539-1.027-.028-2.488-.03-4.978.01-7.466a1.263 1.263 0 0 1 .478-.931 4.458 4.458 0 0 1 4.364-.311 1.234 1.234 0 0 1 .8 1.262q-.024 13.759.006 27.519a1.826 1.826 0 0 1-1.119 1.874 29.326 29.326 0 0 1-4 1.441 20.413 20.413 0 0 1-8.05.59c-5.594-.792-12.166-6.293-11.194-14.485a8.694 8.694 0 0 1 3.631-6.142 16.419 16.419 0 0 1 12.754-3 9.347 9.347 0 0 1 1.781.676zm.754 11.6h.065c0-1.205.04-2.411-.013-3.613a12.843 12.843 0 0 0-.327-2.616 3.817 3.817 0 0 0-3.9-3.033 14.008 14.008 0 0 0-2.16.126 7.8 7.8 0 0 0-6.677 6.224 10.777 10.777 0 0 0 1.307 7.371c1.746 3.007 4.25 4.605 7.849 4.235 2.4-.246 3.722-1.479 3.845-3.879.077-1.598.01-3.206.01-4.812z" class="cls-1" transform="translate(-307.638 -11.959)"/>
        <path id="Path_10714" d="M777.2 11097.285c-.045-5.943 3.669-10.358 9.62-11.405a18.983 18.983 0 0 1 10.655.837 10.737 10.737 0 0 1 7 10.266c.157 5.02-2.315 8.369-6.58 10.484a15.932 15.932 0 0 1-15.1-.221 10 10 0 0 1-5.588-8.937c-.02-.34-.007-.682-.007-1.024zm21.845.77a10.015 10.015 0 0 0-2.554-7.137 7.84 7.84 0 0 0-5.062-2.52 8.145 8.145 0 0 0-7.945 4.979 9.649 9.649 0 0 0 .876 9.625 7.948 7.948 0 0 0 11.429 1.734 8.664 8.664 0 0 0 3.256-6.681z" class="cls-1" transform="translate(-450.631 -44.748)"/>
        <path id="Path_10715" d="M466.282 11097.316c0 2.408-.024 4.817.012 7.225a2.559 2.559 0 0 1-1.193 2.284 11.7 11.7 0 0 1-4.067 1.575 25.438 25.438 0 0 1-12.8-.071 9.01 9.01 0 0 1-2.354-1.033 4.878 4.878 0 0 1-1.707-6.632 8.678 8.678 0 0 1 5.549-4.12c2.374-.659 4.788-1.174 7.161-1.836a16.554 16.554 0 0 0 3.237-1.26c1.626-.854 1.7-2.444.227-3.57a7.376 7.376 0 0 0-5.542-1.332c-2.461.3-4.894.835-7.338 1.269a.733.733 0 0 1-.176.037c-.383-.037-.766-.084-1.149-.127.056-.458-.04-1.032.2-1.348a4.9 4.9 0 0 1 1.553-1.276 13.72 13.72 0 0 1 5.2-1.373 27.737 27.737 0 0 1 8.743.452 7.657 7.657 0 0 1 3.309 1.5 2.92 2.92 0 0 1 1.137 2.405c-.014 2.415-.002 4.822-.002 7.231zm-11.589 9.388c6.122.045 8.068-4.578 6.666-8.533a1.864 1.864 0 0 0-2.174-1.483 17.281 17.281 0 0 0-2.678.347 13.307 13.307 0 0 0-5.359 2.172 3.727 3.727 0 0 0 .156 6.354 6.461 6.461 0 0 0 3.389 1.139z" class="cls-1" transform="translate(-191.037 -44.811)"/>
        <path id="Path_10716" d="M566.11 11059.62v14.274c0 1.764-.387 2.051-2.165 2.179a3.124 3.124 0 0 1-2.867-1.061 2 2 0 0 1-.385-1.239q-.013-14.426-.014-28.85a1.183 1.183 0 0 1 .7-1.156 4.3 4.3 0 0 1 3.994-.029 1.227 1.227 0 0 1 .743 1.246c-.016 4.879-.006 9.757-.006 14.636z" class="cls-1" transform="translate(-282.186 -11.892)"/>
        <path id="Path_10717" d="M724.869 11100.029v7.89c0 1.22-.488 1.723-1.7 1.763a6.051 6.051 0 0 1-2.818-.43 2.775 2.775 0 0 1-1.158-2.68c.063-4.557.045-9.114.015-13.671a4.265 4.265 0 0 1 1.354-3.288 10.54 10.54 0 0 1 9.921-2.838 2.044 2.044 0 0 1 1.9 2.065c-.02.657-.238.919-.9.944-.9.033-1.8.041-2.7.006a2 2 0 0 1-.956-.292.757.757 0 0 0-.982.057c-.111.085-.226.167-.344.243a3.271 3.271 0 0 0-1.663 3.246c.143 2.32.031 4.656.031 6.985z" class="cls-1" transform="translate(-405.505 -45.534)"/>
        <path id="Path_10718" d="M417.893 11172.636l.107-.255z" class="cls-1" transform="translate(-171.101 -112.345)"/>
        <path id="Path_10719" d="M390.771 11198.259q-.627.565-1.308 1.066.68-.502 1.308-1.066z" class="cls-1" transform="translate(-148.983 -132.477)"/>
        <g id="Group_10052" transform="translate(197.963 11027.976)">
            <path id="Path_10720" d="M260.764 11096.317c-6.662-.089-11.467-2.935-15.486-7.233-5.2-5.566-8-12.084-6.905-19.824 1.329-9.419 9.959-16.914 19.561-17.176 9.052-.246 16.1 4.663 18.814 13.33 2.372 7.566 2.03 15.055-1.74 22.106a15.9 15.9 0 0 1-14.244 8.797zm-4.213-5.715a26.012 26.012 0 0 0 14.724-4.646c8.071-5.671 8.326-16.418.454-22.32a20.139 20.139 0 0 0-14.764-4.07c-9.3 1.053-16.361 10.357-14.915 19.583 1.076 6.863 6.929 11.486 14.501 11.451z" class="cls-1" transform="translate(-229.219 -11046.725)"/>
            <path id="Path_10721" d="M247.548 11057.907c-.185-13.425-4.7-21.147-13.552-24.247-8.706-3.049-19.372.958-22.863 5.889-5.521 7.8-8.451 16.758 1.254 30.207-1.216-.342-2.116-.537-2.976-.846-10.434-3.736-14.668-14.91-8.762-24.406a34.406 34.406 0 0 1 23.235-16.148c7.115-1.394 13.152 1.142 18.218 6.156 6.366 6.299 8.617 15.558 5.446 23.395z" class="cls-1" transform="translate(-197.963 -11027.977)"/>
            <path id="Path_10722" d="M258.949 11107.129c.486 1.384.862 2.645 1.364 3.854 1.875 4.515 5.548 7.222 9.813 7.077a10.132 10.132 0 0 0 9.75-7.146c2.044-5.564 2.7-11.271.5-16.992a33.358 33.358 0 0 0-1.65-3.235c5.092-.142 11.892 4.891 13.543 9.983 1.842 5.681-.338 11.354-5.532 15.013-4.965 3.5-10.6 3.712-16.333 3.824a10.454 10.454 0 0 1-6.888-2.464c-3.032-2.392-5.025-6.667-4.567-9.914z" class="cls-1" transform="translate(-245.358 -11076.761)"/>
        </g>
    </g>
</svg>
