<svg xmlns="http://www.w3.org/2000/svg" width="167.121" height="63.108" viewBox="0 0 167.121 63.108">
    <defs>
        <style>
            .cls-1{fill:#132650}
        </style>
    </defs>
    <g id="Group_10653" transform="translate(-1321.285 -11164.897)">
        <path id="Path_10757" d="M1665.459 11209.553v-16.883c0-.627-.054-1.255-.094-1.881-.056-.882.21-1.1 1.06-1.089 1.822.025 3.647.023 5.467-.049.668-.024.952.187.96.814.01.818.008 1.637.007 2.453v11.412c0 1.382.27 1.653 1.661 1.653 4.25 0 8.5-.018 12.748.009a15.208 15.208 0 0 1 6.819 1.932 24.642 24.642 0 0 1 3.722 2.377 18.36 18.36 0 0 1 5.609 7.328 19.4 19.4 0 0 1 1 3.771 16.719 16.719 0 0 1 .514 3.346c.027 4.475-.791 8.767-3.478 12.466a20.75 20.75 0 0 1-3.609 3.821 43.723 43.723 0 0 1-4.393 2.78c-1.767 1.123-3.818 1.19-5.766 1.688-2.686.685-5.24.06-7.724-.549a18.185 18.185 0 0 1-7.623-4.076 19.789 19.789 0 0 1-6.059-9.253 16.589 16.589 0 0 1-.769-4.529c-.087-5.847-.035-11.7-.035-17.542zm7.383 10.721h.013c0 1.792.008 3.582 0 5.374a11.6 11.6 0 0 0 2.266 6.935 12.527 12.527 0 0 0 7.914 5.191 11.467 11.467 0 0 0 8.788-1.779 12.869 12.869 0 0 0 5.328-7.068 10.385 10.385 0 0 0 .106-6.28 20.077 20.077 0 0 0-2.044-4.186 10.664 10.664 0 0 0-6.626-4.787 23.1 23.1 0 0 0-5.488-.664c-2.576-.1-5.16-.026-7.74-.015-.438 0-.876.068-1.314.1-.894.064-1.235.527-1.214 1.429.044 1.914.011 3.831.011 5.749z" class="cls-1" transform="translate(-247.365 -17.795)"/>
        <path id="Path_10758" d="M1477.471 11209.721v-18.587c0-1.313.075-1.344 1.38-1.324 1.541.022 3.083-.011 4.623-.07.777-.031 1.138.333 1.141 1.04.018 4.051.014 8.1.01 12.151a8.5 8.5 0 0 1-.086.937c-.173 1.559.361 2.176 1.918 2.178 3.9 0 7.809.048 11.713-.014a17.348 17.348 0 0 1 8.016 2.08 18.462 18.462 0 0 1 7.563 6.76 17.151 17.151 0 0 1 3.012 9.361c0 .881-.008 1.761.008 2.641.072 3.932-1.459 7.313-3.532 10.534a18.331 18.331 0 0 1-6.7 5.959 22.43 22.43 0 0 1-5.815 2.056c-2.933.7-5.767.2-8.6-.215a15.815 15.815 0 0 1-3.822-1.575 17.607 17.607 0 0 1-5.5-4.062 17.99 17.99 0 0 1-5.353-13.057c.064-5.6.014-11.2.014-16.792zm7 10.372c-.046 3.608-.249 7.239 1.437 10.617a11.84 11.84 0 0 0 3.03 4.132 14.03 14.03 0 0 0 5.453 2.795 11.475 11.475 0 0 0 7.189-.479 11.326 11.326 0 0 0 5.472-4.284c2.268-3.429 3.345-7.07 1.809-11.042a12.821 12.821 0 0 0-11.837-8.733c-3.635-.236-7.3-.062-10.949-.038-1.1.007-1.6.56-1.6 1.657-.014 1.79-.007 3.582-.007 5.375z" class="cls-1" transform="translate(-112.271 -17.858)"/>
        <path id="Path_10759" d="M1832.227 11287c-3.18 0-6.359-.015-9.539.018a4.788 4.788 0 0 0-1.267.375 4.919 4.919 0 0 0 .5 1.34 8.8 8.8 0 0 0 7.808 3.746c.252-.013.5-.008.756-.008 1.26 0 1.367.187 1.312 1.421a17.947 17.947 0 0 0 .143 3.184c.13.966-.265 1.617-1.277 1.6a31.942 31.942 0 0 1-3.669-.214 14.443 14.443 0 0 1-10.155-6.32 13.011 13.011 0 0 1-2.08-6.1 13.775 13.775 0 0 1 5.722-13.428 13.039 13.039 0 0 1 10.849-2.554c4.759 1.029 8.466 3.559 10.494 8.167a15.211 15.211 0 0 1 1.265 6.294c-.015 2.459-.013 2.467-2.549 2.473-2.77.008-5.541 0-8.311 0zm-3.311-5.3v.008c2.3 0 4.591.007 6.886 0 1.252-.006 1.535-.439.873-1.473a10.74 10.74 0 0 0-5.446-4.65 7.21 7.21 0 0 0-6.309.61 15.516 15.516 0 0 0-3.817 3.817c-.894 1.1-.516 1.674.927 1.685 2.295.02 4.591.003 6.886.003z" class="cls-1" transform="translate(-354.681 -75.4)"/>
        <path id="Path_10760" d="M1325.243 11166.983a9.629 9.629 0 0 1 7.427-1.407 8.378 8.378 0 0 1 3.188 1.721 6.962 6.962 0 0 1 2.582 3.592c.758 2.62 1.479 5.25 2.218 7.876a6.786 6.786 0 0 0 .226.719c.427 1.045.05 1.658-1.039 1.845-.822.139-1.617.428-2.432.615-.787.183-1.583.33-2.378.475-1.872.344-3.766 1.033-5.615.929a8.326 8.326 0 0 1-6.919-3.9c-2.383-3.775-1.158-10.077 2.742-12.465z" class="cls-1" transform="translate(0 -.324)"/>
        <path id="Path_10761" d="M1630.8 11269.84h3.011c.552 0 1.006.123 1.009.822q.032 7.345.076 14.689c.026 3.988.066 7.977.1 11.966.009 1.269-.3 1.5-1.556 1.422-1.1-.069-2.2-.021-3.3-.037-1.207-.017-1.589-.49-1.49-1.705s.181-2.442.2-3.665q.125-10.642.211-21.287c0-.156 0-.314-.009-.471-.025-.478-.235-1.256-.045-1.371a5.753 5.753 0 0 1 1.776-.431z" class="cls-1" transform="translate(-220.963 -75.4)"/>
        <path id="Path_10762" d="M1409.6 11218.635c2.849-.251 5.572 2.408 6.262 4.75a6.327 6.327 0 0 1-2.325 7.174 6.117 6.117 0 0 1-5.4 1.168 6.983 6.983 0 0 1-4.631-3.737 15.042 15.042 0 0 1-1.013-3.107c-.3-1.023-.542-2.062-.824-3.089-.294-1.067-.164-1.325.909-1.606 1.81-.476 3.619-.954 5.438-1.391a11.4 11.4 0 0 1 1.584-.162z" class="cls-1" transform="translate(-57.69 -38.622)"/>
        <path id="Path_10763" d="M1365.965 11236.909c.289 2.7-2.556 5.451-4.675 5.934-3.315.756-6.444-.48-7.694-3.436a6.5 6.5 0 0 1 4.916-9.183c1.612-.276 3.164-.894 4.759-1.294.252-.063.794.146.855.339.578 1.816 1.113 3.648 1.59 5.493a15.154 15.154 0 0 1 .249 2.147z" class="cls-1" transform="translate(-22.813 -46.027)"/>
        <path id="Path_10764" d="M1392.885 11171.317a5.826 5.826 0 0 1 4.017-5.88 6.279 6.279 0 0 1 7.721 2.117 6.7 6.7 0 0 1-.137 7.95 7.059 7.059 0 0 1-3.824 2.17c-1.637.344-3.243.84-4.852 1.3-.572.166-.9.193-1.086-.538-.344-1.388-.853-2.733-1.223-4.115-.265-.981-.415-1.999-.616-3.004z" class="cls-1" transform="translate(-51.47 .001)"/>
    </g>
</svg>
