<svg width="1862" height="1080" xmlns="http://www.w3.org/2000/svg" stroke="null" style="vector-effect: non-scaling-stroke;">

 <g stroke="null">
  <title stroke="null">Layer 1</title>
  <g stroke="null" data-name="Group 10768" id="Group_10768">
   <g stroke="null" data-name="Group 10727" id="Group_10727">
    <g stroke="null" data-name="Group 10717" id="Group_10717">
     <g stroke="null" data-name="Group 10716" id="Group_10716">
      <rect stroke="null" x="698.87241" y="167.99969" fill="#132650" height="282.26058" width="65.49412" data-name="Rectangle 2214" id="Rectangle_2214"/>
      <path stroke="null" fill="#132650" d="m1062.86292,252.76047a131.41215,131.41215 0 0 0 -29.67371,-44.65893a136.09635,136.09635 0 0 0 -45.95186,-29.44056a160.53478,160.53478 0 0 0 -59.62296,-10.59775l-109.02969,0l0,282.26058l109.02969,0a161.65814,161.65814 0 0 0 59.62296,-10.59775a133.998,133.998 0 0 0 45.95186,-29.44056a132.34475,132.34475 0 0 0 29.67371,-44.74372a156.69839,156.69839 0 0 0 0,-112.73891l0,-0.04239zm-61.46697,94.25642a80.81847,80.81847 0 0 1 -15.51511,28.57154a67.31693,67.31693 0 0 1 -24.75635,18.01618a83.65867,83.65867 0 0 1 -33.31934,6.35865l-43.53557,0l0,-181.68789l43.53557,0a83.67986,83.67986 0 0 1 33.31934,6.35865a67.44411,67.44411 0 0 1 24.75635,18.01618a80.83967,80.83967 0 0 1 15.51511,28.57154a135.65125,135.65125 0 0 1 0,75.75274l0,0.04239z" data-name="Path 12424" id="Path_12424"/>
     </g>
     <path stroke="null" fill="#132650" d="m1256.67473,231.09866a23.97212,23.97212 0 0 1 -5.91355,6.80376a13.24719,13.24719 0 0 1 -7.99071,2.26792a19.39389,19.39389 0 0 1 -9.28363,-2.73422l-11.27601,-6.1255a94.00208,94.00208 0 0 0 -14.34936,-6.1255a57.22787,57.22787 0 0 0 -18.3977,-2.73422a39.46604,39.46604 0 0 0 -26.55797,7.65158a26.09167,26.09167 0 0 0 -8.73255,20.68682a19.07596,19.07596 0 0 0 5.25649,13.77708a45.21002,45.21002 0 0 0 13.79828,9.432a146.60933,146.60933 0 0 0 19.52106,7.27006q10.97927,3.3065 22.44604,7.35484a201.35732,201.35732 0 0 1 22.44604,9.53798a75.0321,75.0321 0 0 1 19.52106,13.96784a65.26097,65.26097 0 0 1 13.79828,20.66562a73.90874,73.90874 0 0 1 5.25649,29.35578a96.10043,96.10043 0 0 1 -6.57061,35.69323a83.59508,83.59508 0 0 1 -19.07596,28.97426a88.38527,88.38527 0 0 1 -30.79707,19.45748a114.68889,114.68889 0 0 1 -41.58559,7.0793a132.25997,132.25997 0 0 1 -26.00689,-2.64944a153.37069,153.37069 0 0 1 -25.64656,-7.46082a147.96584,147.96584 0 0 1 -23.31506,-11.42438a98.81346,98.81346 0 0 1 -18.96998,-14.73088l18.77922,-29.84327a18.82161,18.82161 0 0 1 5.91355,-5.38366a15.36674,15.36674 0 0 1 7.96951,-2.11955a21.32268,21.32268 0 0 1 11.36079,3.58204q5.72279,3.58204 12.95046,7.92712a104.47266,104.47266 0 0 0 16.61728,7.92712a61.93327,61.93327 0 0 0 22.14931,3.58204a42.03069,42.03069 0 0 0 26.85471,-7.65158a29.20741,29.20741 0 0 0 9.58037,-24.26886a23.06071,23.06071 0 0 0 -5.25649,-15.66348a40.71657,40.71657 0 0 0 -13.79828,-10.00428a128.10565,128.10565 0 0 0 -19.43628,-6.99452q-10.89449,-3.00976 -22.34007,-6.69778a162.88748,162.88748 0 0 1 -22.34007,-9.07168a70.49626,70.49626 0 0 1 -19.43628,-14.1586a66.08759,66.08759 0 0 1 -13.79828,-21.89496a87.26191,87.26191 0 0 1 -5.25649,-32.38674a78.14784,78.14784 0 0 1 24.41722,-56.46483a89.50863,89.50863 0 0 1 29.48295,-18.4189a108.37263,108.37263 0 0 1 39.99592,-6.88854a148.72888,148.72888 0 0 1 24.50201,1.99238a128.59314,128.59314 0 0 1 22.6368,5.84996a124.22687,124.22687 0 0 1 20.00856,9.26244a92.34883,92.34883 0 0 1 16.61728,12.18742l-15.74826,29.61012z" data-name="Path 12425" id="Path_12425"/>
     <path stroke="null" fill="#132650" d="m1354.66138,362.82884a55.29908,55.29908 0 0 0 14.83686,35.58726a43.93829,43.93829 0 0 0 30.98783,11.04286a55.10832,55.10832 0 0 0 17.4651,-2.45868a86.37169,86.37169 0 0 0 13.05643,-5.46844q5.72279,-3.00976 10.59775,-5.48964a21.83137,21.83137 0 0 1 10.04667,-2.45868a12.01785,12.01785 0 0 1 10.59775,5.08692l16.95641,20.96236a86.68963,86.68963 0 0 1 -19.43628,16.95641a100.57268,100.57268 0 0 1 -21.40746,10.19504a115.70628,115.70628 0 0 1 -21.95855,5.10812a164.26518,164.26518 0 0 1 -20.94116,1.4201a108.77535,108.77535 0 0 1 -38.40626,-6.69778a88.06733,88.06733 0 0 1 -31.36935,-19.92378a93.91729,93.91729 0 0 1 -21.19551,-32.85304a123.44264,123.44264 0 0 1 -7.77875,-45.69751a103.85799,103.85799 0 0 1 6.65539,-37.19812a90.1021,90.1021 0 0 1 49.38553,-51.73823a107.14329,107.14329 0 0 1 75.4772,-1.69564a76.98208,76.98208 0 0 1 27.55416,17.54988a80.30978,80.30978 0 0 1 18.03738,28.23242a104.21831,104.21831 0 0 1 6.48583,37.85518a82.76846,82.76846 0 0 1 -0.57228,10.76732a17.21075,17.21075 0 0 1 -2.11955,6.613a7.90592,7.90592 0 0 1 -4.02715,3.39128a18.864,18.864 0 0 1 -6.48583,0.9326l-112.44217,-0.0212zm73.23048,-33.91281a51.71704,51.71704 0 0 0 -1.78042,-13.60752a33.06499,33.06499 0 0 0 -5.80757,-11.8059a29.67371,29.67371 0 0 0 -10.59775,-8.4782a36.18073,36.18073 0 0 0 -15.96022,-3.20052a34.73944,34.73944 0 0 0 -25.90091,9.53798a49.74586,49.74586 0 0 0 -12.39937,27.55416l72.44625,0z" data-name="Path 12426" id="Path_12426"/>
     <path stroke="null" fill="#132650" d="m1504.87401,281.62866a118.35571,118.35571 0 0 1 39.1481,-23.31506a136.64744,136.64744 0 0 1 46.10023,-7.65158a83.95541,83.95541 0 0 1 31.79326,5.76518a68.44029,68.44029 0 0 1 24.03571,16.045a70.19952,70.19952 0 0 1 15.1124,24.45962a88.32168,88.32168 0 0 1 5.25649,30.96664l0,122.36167l-26.66395,0a27.13025,27.13025 0 0 1 -12.48415,-2.26792a17.25314,17.25314 0 0 1 -7.03691,-9.4532l-4.13312,-10.76732q-7.31245,6.23148 -14.07382,10.95808a89.02113,89.02113 0 0 1 -13.98904,8.0331a68.46149,68.46149 0 0 1 -15.38794,4.91736a94.51077,94.51077 0 0 1 -18.12216,1.61086a79.10163,79.10163 0 0 1 -24.20527,-3.49726a50.44531,50.44531 0 0 1 -18.50368,-10.27982a45.35839,45.35839 0 0 1 -11.74231,-16.95641a61.29741,61.29741 0 0 1 -4.13312,-23.31506a48.91923,48.91923 0 0 1 5.25649,-21.42866a52.77681,52.77681 0 0 1 18.22814,-19.8178a115.55791,115.55791 0 0 1 34.9302,-15.02761a233.87123,233.87123 0 0 1 55.38386,-6.80376l0,-8.30864a36.03236,36.03236 0 0 0 -7.03691,-24.81994a25.81613,25.81613 0 0 0 -19.98736,-7.65158a52.79801,52.79801 0 0 0 -16.95641,2.26792a75.07449,75.07449 0 0 0 -11.74231,5.10812q-5.1717,2.819 -10.04667,5.08692a27.55416,27.55416 0 0 1 -11.63633,2.26792a16.65967,16.65967 0 0 1 -10.13145,-3.00976a26.28243,26.28243 0 0 1 -6.76137,-7.18528l-10.47058,-18.29172zm104.76939,89.02113a192.68836,192.68836 0 0 0 -28.71991,3.03096a69.54246,69.54246 0 0 0 -17.82542,5.6592a21.61942,21.61942 0 0 0 -9.11407,7.73636a18.4189,18.4189 0 0 0 -2.54346,9.432a16.44771,16.44771 0 0 0 5.44725,14.07382a26.4308,26.4308 0 0 0 15.96022,4.06954a46.01545,46.01545 0 0 0 19.71182,-3.96356a60.11046,60.11046 0 0 0 17.08358,-12.84448l0,-27.19384z" data-name="Path 12427" id="Path_12427"/>
     <path stroke="null" fill="#132650" d="m1761.74248,167.57582l0,282.5997l-58.20286,0l0,-282.5997l58.20286,0z" data-name="Path 12428" id="Path_12428"/>
    </g>
    <path stroke="null" fill="#132650" d="m145.07622,370.79827l16.80804,22.50963l25.26505,0l0,-0.19076l9.09287,0c-5.53203,-7.48201 -10.59775,-14.96403 -15.1124,-22.31887l-36.05356,0z" data-name="Path 12429" id="Path_12429"/>
    <path stroke="null" fill="#132650" d="m81.85001,284.55375l16.40532,23.88734l54.21811,0c-3.07335,-8.0119 -6.01952,-16.00261 -8.75374,-23.88734l-61.86969,0z" data-name="Path 12430" id="Path_12430"/>
    <path stroke="null" fill="#132650" d="m49.86599,237.1818l19.3515,26.8971l67.55008,0c-2.98857,-9.24124 -5.72279,-18.07977 -8.18147,-26.38841l-78.72012,-0.50869z" data-name="Path 12431" id="Path_12431"/>
    <path stroke="null" fill="#132650" d="m114.17316,329.1491l16.80804,21.19551l39.33886,0c-3.2853,-6.95213 -6.48583,-14.05262 -9.53798,-21.19551l-46.60892,0z" data-name="Path 12432" id="Path_12432"/>
    <path stroke="null" fill="#132650" d="m460.95284,393.11714l0,0.19076l25.30744,0l16.82923,-22.50963l-38.15191,0c-4.47225,7.37604 -9.62276,14.83686 -15.19718,22.31887l11.21242,0z" data-name="Path 12433" id="Path_12433"/>
    <path stroke="null" fill="#132650" d="m549.99519,308.44109l16.42652,-23.88734l-63.94685,0c-2.75542,7.86353 -5.72279,15.87544 -8.81733,23.88734l56.33766,0z" data-name="Path 12434" id="Path_12434"/>
    <path stroke="null" fill="#132650" d="m579.0754,264.0789l19.37269,-26.8971l-80.77608,0.50869c-2.47987,8.30864 -5.21409,17.14717 -8.24505,26.38841l69.64844,0z" data-name="Path 12435" id="Path_12435"/>
    <path stroke="null" fill="#132650" d="m517.20572,350.4082l16.82923,-21.19551l-48.74967,0q-4.59943,10.8309 -9.58037,21.19551l41.5008,0z" data-name="Path 12436" id="Path_12436"/>
    <path stroke="null" fill="#132650" d="m488.1467,196.33806l-165.47333,-52.77681l0,-0.23315l-164.51953,52.79801l2.28911,10.08906a724.88636,724.88636 0 0 0 45.48556,134.67626c26.24004,53.81539 107.01612,120.19972 110.44979,122.93394l6.35865,5.10812l0,0.25435l6.35865,-5.1717c3.43367,-2.79781 84.78203,-69.18214 111.10685,-122.93394a722.00377,722.00377 0 0 0 45.7611,-134.67626l2.18314,-10.06787zm-186.18134,192.9851a4.2391,4.2391 0 0 1 -3.22172,2.90378c-1.73803,0.25435 -2.77661,-0.84782 -3.66682,-2.11955a111.84869,111.84869 0 0 1 -14.01023,-29.16502a93.04828,93.04828 0 0 1 -3.81519,-17.33793a100.42432,100.42432 0 0 1 2.22553,-42.03069a54.85397,54.85397 0 0 1 20.05095,-29.08024a37.83398,37.83398 0 0 1 53.56105,7.77875a61.46697,61.46697 0 0 1 12.52655,42.62417a6.35865,6.35865 0 0 1 -0.42391,2.11955c-0.69945,1.78042 -1.78042,3.32769 -3.94236,3.11574a3.64563,3.64563 0 0 1 -3.34889,-3.70921c-0.19076,-3.09454 0,-6.21028 -0.25435,-9.32602a45.12524,45.12524 0 0 0 -14.83686,-31.96283a31.79326,31.79326 0 0 0 -46.10023,4.09073a56.69798,56.69798 0 0 0 -12.7173,38.57582a99.27976,99.27976 0 0 0 17.08358,57.03711a6.76137,6.76137 0 0 1 0.89021,6.48583zm65.55771,-13.98904c-1.44129,1.58966 -3.56085,1.16575 -5.59561,1.67445a37.41007,37.41007 0 0 1 -37.21931,-20.49606a62.54794,62.54794 0 0 1 -8.16027,-36.03236a7.71516,7.71516 0 0 1 0.4875,-2.3527c0.69945,-1.80162 1.8864,-3.22172 4.02715,-2.96737a3.49726,3.49726 0 0 1 3.17933,3.49726c0.23315,3.17933 0.14837,6.35865 0.33913,9.60156a45.2948,45.2948 0 0 0 12.7173,30.03403a28.93187,28.93187 0 0 0 25.79493,8.16027c2.31031,-0.29674 4.2391,-0.14837 5.32007,2.24672a5.93474,5.93474 0 0 1 -0.84782,6.52822l-0.04239,0.10598zm17.4651,-46.26979a30.28838,30.28838 0 0 1 -12.82328,20.39008a20.17812,20.17812 0 0 1 -26.26123,-2.71302a32.21717,32.21717 0 0 1 -8.77494,-25.09548a23.84495,23.84495 0 0 0 -3.13694,-13.86186a14.54012,14.54012 0 0 0 -24.60798,-1.65325a26.91829,26.91829 0 0 0 -5.1717,18.14335a74.77775,74.77775 0 0 0 13.35317,44.51057a52.98877,52.98877 0 0 0 21.34388,17.71944a5.44725,5.44725 0 0 1 3.51845,7.27006a3.89997,3.89997 0 0 1 -6.08311,2.64944a61.95447,61.95447 0 0 1 -30.14001,-29.37697a87.47386,87.47386 0 0 1 -9.30483,-51.03878a30.58512,30.58512 0 0 1 11.57275,-21.47105a20.36888,20.36888 0 0 1 28.40198,2.11955a32.51391,32.51391 0 0 1 8.24505,24.71396a23.31506,23.31506 0 0 0 2.90378,13.33197a14.83686,14.83686 0 0 0 26.34602,0a28.69872,28.69872 0 0 0 3.64563,-15.32435a76.07068,76.07068 0 0 0 -16.12978,-49.63988a49.00401,49.00401 0 0 0 -39.02093,-19.88139a50.65726,50.65726 0 0 0 -36.18073,15.23957a75.37123,75.37123 0 0 0 -22.46724,49.97901a142.0099,142.0099 0 0 0 2.24672,37.45246a9.09287,9.09287 0 0 1 0.25435,3.87878c-0.52989,2.11955 -1.46249,3.87878 -3.96356,3.85758s-3.32769,-1.75923 -3.66682,-3.73041c-0.63587,-3.66682 -1.05978,-7.35484 -1.56847,-11.02166a117.76224,117.76224 0 0 1 4.7266,-58.13928a74.5234,74.5234 0 0 1 34.03999,-40.90733a54.2605,54.2605 0 0 1 66.55389,10.32221a83.25595,83.25595 0 0 1 22.78517,52.77681a71.7256,71.7256 0 0 1 -0.61467,19.41509l-0.0212,0.08478zm10.34341,-58.41482a3.98476,3.98476 0 0 1 -3.49726,2.88259a3.43367,3.43367 0 0 1 -3.45487,-2.41629a99.32215,99.32215 0 0 0 -10.11026,-17.4439a67.29574,67.29574 0 0 0 -104.38788,-7.01571a90.33525,90.33525 0 0 0 -12.10263,15.04881c-1.10217,1.69564 -2.11955,3.58204 -4.76899,2.62824a4.85377,4.85377 0 0 1 -2.50107,-6.10431a9.05048,9.05048 0 0 1 1.08097,-2.45868a88.61842,88.61842 0 0 1 41.35244,-35.8416a70.49626,70.49626 0 0 1 16.65967,-4.53584a74.18428,74.18428 0 0 1 70.53865,31.03022a106.86775,106.86775 0 0 1 10.91569,18.29172a6.86734,6.86734 0 0 1 0.31793,5.91355l-0.04239,0.0212zm1.35651,-36.18073a4.2391,4.2391 0 0 1 -3.73041,2.64944a3.41248,3.41248 0 0 1 -3.56085,-2.11955a81.05162,81.05162 0 0 0 -10.32221,-15.13359a69.94518,69.94518 0 0 0 -50.0214,-23.95092a81.26358,81.26358 0 0 0 -59.19905,20.11454a90.14449,90.14449 0 0 0 -13.03524,13.62871c-1.18695,1.52608 -2.39509,3.22172 -5.06573,2.41629a3.92117,3.92117 0 0 1 -2.47987,-5.34127a7.84234,7.84234 0 0 1 1.18695,-2.11955a96.27,96.27 0 0 1 44.15024,-32.74706a87.19832,87.19832 0 0 1 17.57108,-4.40867a80.54293,80.54293 0 0 1 73.18809,25.90091a87.24071,87.24071 0 0 1 11.02166,15.98141a5.1929,5.1929 0 0 1 0.33913,5.04453l-0.04239,0.08478z" data-name="Path 12437" id="Path_12437"/>
    <path stroke="null" fill="#132650" d="m517.67204,237.69049c9.58037,-32.19598 15.0912,-55.85016 15.53631,-57.84254l1.84401,-8.05429l-212.95127,-67.61367l-210.76813,67.35932l1.84401,8.05429c0.44511,1.99238 5.95594,25.79493 15.53631,58.09689c2.45868,8.30864 5.1929,17.14717 8.18147,26.38841c2.11955,6.67658 4.45106,13.50154 6.88854,20.47486c2.75542,7.88473 5.6804,15.87544 8.75374,23.88734q4.00595,10.40699 8.32983,20.70801c3.05215,7.22767 6.23148,14.30697 9.53798,21.19551c0.89021,1.8864 1.75923,3.81519 2.64944,5.6592c2.3739,4.83258 5.15051,9.74993 8.13907,14.73088c4.45106,7.37604 9.58037,14.83686 15.1124,22.31887a824.7172,824.7172 0 0 0 121.61982,123.33666l4.81138,3.92117l4.51464,-3.66682a825.45905,825.45905 0 0 0 122.55243,-123.59101c5.55322,-7.48201 10.72493,-14.96403 15.19718,-22.31887c2.96737,-4.87497 5.6804,-9.72874 8.0331,-14.47653c0.9538,-1.94999 1.8652,-3.94236 2.79781,-5.91355q4.95975,-10.42819 9.58037,-21.19551c2.90378,-6.86734 5.6804,-13.77708 8.37223,-20.70801c3.09454,-8.0119 6.06192,-16.00261 8.81733,-23.88734c2.45868,-6.97332 4.7266,-13.77708 6.90974,-20.47486c2.94618,-9.13526 5.6804,-18.07977 8.16027,-26.38841zm-191.33185,255.95695l-3.81519,3.24291l-3.81519,-3.26411c-30.24599,-25.9433 -103.39169,-92.05209 -129.56814,-145.48596a906.8074,906.8074 0 0 1 -55.10832,-159.15707l-1.35651,-5.36246l189.86936,-60.4072l191.0775,60.66154l-1.37771,5.36246a903.11939,903.11939 0 0 1 -55.55343,159.17826c-26.24004,53.09475 -99.89443,119.24593 -130.35237,145.23162z" data-name="Path 12438" id="Path_12438"/>
    <path stroke="null" fill="#132650" d="m2858.08005,339.36534a60.06807,60.06807 0 0 0 -12.12383,-8.30864a95.7825,95.7825 0 0 0 24.5232,-13.48034a83.67986,83.67986 0 0 0 17.86781,-18.67324a80.90325,80.90325 0 0 0 10.93688,-22.76398a90.33525,90.33525 0 0 0 3.70921,-26.17645a88.7032,88.7032 0 0 0 -6.35865,-33.61608a67.04139,67.04139 0 0 0 -20.02975,-26.76993a98.85585,98.85585 0 0 0 -35.56606,-17.67705a189.95414,189.95414 0 0 0 -52.67084,-6.35865l-92.62437,0l0,284.71925l66.27835,0l0,-105.97754l16.85043,0a19.24552,19.24552 0 0 1 19.20313,10.21623l47.41435,83.14998a25.43461,25.43461 0 0 0 23.90853,12.56894l59.34742,0l-60.57676,-99.0678a58.16047,58.16047 0 0 0 -10.08906,-11.7847zm-20.66562,-65.70607a36.73181,36.73181 0 0 1 -8.9657,14.43414a42.39102,42.39102 0 0 1 -15.85424,9.66515a69.28811,69.28811 0 0 1 -23.31506,3.47606l-27.25742,0l0,-86.07496l27.08786,0a57.94852,57.94852 0 0 1 38.55463,10.76732a37.41007,37.41007 0 0 1 12.44176,29.88567a55.36267,55.36267 0 0 1 -2.69183,17.86781l0,-0.0212z" data-name="Path 12439" id="Path_12439"/>
    <path stroke="null" fill="#132650" d="m3171.3283,205.98201a137.94036,137.94036 0 0 0 -46.63012,-29.67371a163.54454,163.54454 0 0 0 -60.49198,-10.74612l-110.59816,0l0,284.71925l110.59816,0a164.96464,164.96464 0 0 0 60.49198,-10.59775a135.96918,135.96918 0 0 0 46.63012,-29.67371a133.15018,133.15018 0 0 0 29.99164,-45.14643a157.1223,157.1223 0 0 0 0,-113.73509a132.15399,132.15399 0 0 0 -29.99164,-45.14643zm-30.01284,141.5648a81.07282,81.07282 0 0 1 -15.64228,28.65633a67.9528,67.9528 0 0 1 -24.96831,18.07977a84.78203,84.78203 0 0 1 -33.61608,6.35865l-43.91709,0l0,-182.09061l43.91709,0a84.78203,84.78203 0 0 1 33.61608,6.35865a68.05878,68.05878 0 0 1 24.96831,18.07977a81.00923,81.00923 0 0 1 15.64228,28.65633a135.46049,135.46049 0 0 1 0,75.98589l0,-0.08478z" data-name="Path 12440" id="Path_12440"/>
    <path stroke="null" fill="#132650" d="m2493.26278,165.54098l-110.21664,284.71925l51.69584,0a21.53464,21.53464 0 0 0 13.77708,-4.38747a23.84495,23.84495 0 0 0 7.71516,-9.87711l16.80804,-49.63988l15.23957,-44.93448l26.19765,-77.57556q2.92498,-7.41843 6.35865,-17.59227t6.35865,-22.08572q3.32769,11.72112 6.65539,21.78898t6.25267,17.48629l26.38841,77.97827l15.04881,44.93448l16.80804,49.63988a25.43461,25.43461 0 0 0 8.0119,10.25863a22.36126,22.36126 0 0 0 13.88306,4.00595l51.20835,0l-110.21664,-284.71925l-67.97399,0z" data-name="Path 12441" id="Path_12441"/>
    <path stroke="null" fill="#132650" d="m2313.80061,332.34963a86.66843,86.66843 0 0 1 -3.7516,26.57917a55.36267,55.36267 0 0 1 -10.89449,19.8178a47.52033,47.52033 0 0 1 -17.4651,12.46296a65.40934,65.40934 0 0 1 -46.90566,0a46.86327,46.86327 0 0 1 -17.4651,-12.56894a56.01973,56.01973 0 0 1 -10.89449,-19.90258a86.49887,86.49887 0 0 1 -3.7728,-26.57917l0,-166.61789l-65.38814,0l0,166.80865a131.58171,131.58171 0 0 0 8.30864,47.54152a105.51124,105.51124 0 0 0 23.97212,37.30409a108.45741,108.45741 0 0 0 38.15191,24.35364a151.18756,151.18756 0 0 0 101.08138,0a108.60578,108.60578 0 0 0 38.15191,-24.35364a106.69819,106.69819 0 0 0 24.0569,-37.30409a130.26759,130.26759 0 0 0 8.4782,-47.54152l0,-166.80865l-65.38814,0l-0.27554,166.80865z" data-name="Path 12442" id="Path_12442"/>
    <path stroke="null" fill="#132650" d="m1949.81023,243.37089a69.94518,69.94518 0 0 1 24.65038,-18.07977a79.61033,79.61033 0 0 1 32.5351,-6.35865a143.93869,143.93869 0 0 1 17.50749,0.9538a89.89015,89.89015 0 0 1 14.83686,3.05215a87.24071,87.24071 0 0 1 13.79828,5.44725q6.76137,3.34889 14.37055,7.92712a19.90258,19.90258 0 0 0 14.83686,3.43367a17.9102,17.9102 0 0 0 11.3184,-8.22386l18.65205,-28.48676a126.57957,126.57957 0 0 0 -19.07596,-14.83686a129.2926,129.2926 0 0 0 -23.50582,-11.84829a158.96631,158.96631 0 0 0 -28.06285,-7.84234a175.66837,175.66837 0 0 0 -32.5351,-2.86139a166.27876,166.27876 0 0 0 -60.59796,10.59775a133.17137,133.17137 0 0 0 -46.2274,29.44056a128.99586,128.99586 0 0 0 -29.39817,45.01926a155.08753,155.08753 0 0 0 -10.27982,57.22787a146.249,146.249 0 0 0 10.8521,56.69798a130.92465,130.92465 0 0 0 30.81827,45.12524a143.43,143.43 0 0 0 48.05022,29.82208a172.14991,172.14991 0 0 0 62.31479,10.78851a177.46999,177.46999 0 0 0 50.31814,-7.0793a145.29521,145.29521 0 0 0 45.50675,-22.89115l0,-119.07636l-100.27595,0l0,36.68942a11.25481,11.25481 0 0 0 3.47606,8.4782a13.35317,13.35317 0 0 0 9.66515,3.34889l28.88948,0l0,42.26384a117.74105,117.74105 0 0 1 -18.35531,6.1255a89.02113,89.02113 0 0 1 -21.02594,2.28911a91.64938,91.64938 0 0 1 -34.35792,-6.21028a73.48483,73.48483 0 0 1 -26.64275,-18.07977a81.58151,81.58151 0 0 1 -17.21075,-29.05904a117.65626,117.65626 0 0 1 -6.08311,-39.38125a113.48075,113.48075 0 0 1 5.51083,-36.43508a81.87825,81.87825 0 0 1 15.72707,-27.97807z" data-name="Path 12443" id="Path_12443"/>
    <path stroke="null" fill="#132650" d="m3829.34313,165.54098l0,150.65767q0,6.84615 0.40271,14.56131t1.3989,15.91783l-138.57623,-170.98416a52.20454,52.20454 0 0 0 -5.00214,-5.27768a18.22814,18.22814 0 0 0 -4.59943,-3.03096a19.07596,19.07596 0 0 0 -5.40485,-1.46249a59.07188,59.07188 0 0 0 -7.39723,-0.38152l-29.52534,0l0,284.71925l59.58057,0l0,-152.60766q0,-6.25267 -0.29674,-13.39556t-1.10217,-14.83686l137.38928,169.81841a31.79326,31.79326 0 0 0 10.59775,8.4782a31.28457,31.28457 0 0 0 13.09882,2.43748l29.12263,0l0,-284.61328l-59.68655,0z" data-name="Path 12444" id="Path_12444"/>
    <path stroke="null" fill="#132650" d="m3438.01042,165.54098l-110.21664,284.71925l51.58987,0a21.53464,21.53464 0 0 0 13.77708,-4.38747a23.78136,23.78136 0 0 0 7.71516,-9.87711l16.80804,-49.63988l15.23957,-44.93448l26.19765,-77.57556q2.92498,-7.41843 6.25267,-17.59227t6.35865,-22.08572q3.32769,11.72112 6.65539,21.78898t6.35865,17.48629l26.38841,77.97827l15.04881,44.93448l16.80804,49.63988a25.43461,25.43461 0 0 0 8.0119,10.25863a22.38246,22.38246 0 0 0 13.88306,4.00595l50.99639,0l-110.21664,-284.71925l-67.65606,0z" data-name="Path 12445" id="Path_12445"/>
    <rect stroke="null" x="3236.78017" y="165.541" fill="#132650" height="284.71925" width="66.21477" data-name="Rectangle 2215" id="Rectangle_2215"/>
   </g>
  </g>
  <g stroke="null" data-name="Group 10768" id="svg_28">
   <g stroke="null" data-name="Group 10727" id="svg_27">
    <g stroke="null" data-name="Group 10717" id="svg_8">
     <g stroke="null" data-name="Group 10716" id="svg_3">
      <rect stroke="null" x="-958.87965" y="614.17017" fill="#132650" height="245.35267" width="56.93022" data-name="Rectangle 2214" id="svg_1"/>
      <path stroke="null" fill="#132650" d="m-642.48392,687.84778a114.22891,114.22891 0 0 0 -25.79361,-38.81942a118.30064,118.30064 0 0 0 -39.94329,-25.59096a139.54351,139.54351 0 0 0 -51.82676,-9.21199l-94.77317,0l0,245.35264l94.77317,0a140.52,140.52 0 0 0 51.82676,-9.21199a116.47664,116.47664 0 0 0 39.94329,-25.59096a115.03956,115.03956 0 0 0 25.79361,-38.8931a136.20877,136.20877 0 0 0 0,-97.99736l0,-0.03685zm-53.42966,81.9316a70.25078,70.25078 0 0 1 -13.48637,24.8356a58.51469,58.51469 0 0 1 -21.51927,15.6604a72.7196,72.7196 0 0 1 -28.96256,5.52722l-37.8429,0l0,-157.93071l37.8429,0a72.73801,72.73801 0 0 1 28.96256,5.52722a58.62522,58.62522 0 0 1 21.51927,15.66043a70.26922,70.26922 0 0 1 13.48637,24.83557a117.91372,117.91372 0 0 1 0,65.84746l0,0.03682z" data-name="Path 12424" id="svg_2"/>
     </g>
     <path stroke="null" fill="#132650" d="m-474.0146,669.01843a20.83758,20.83758 0 0 1 -5.1403,5.9141a11.51503,11.51503 0 0 1 -6.94588,1.97138a16.85797,16.85797 0 0 1 -8.06972,-2.37671l-9.80156,-5.32454a81.71054,81.71054 0 0 0 -12.47307,-5.32454a49.74485,49.74485 0 0 0 -15.99205,-2.37671a34.30551,34.30551 0 0 0 -23.08528,6.65108a22.67995,22.67995 0 0 0 -7.59071,17.98184a16.58162,16.58162 0 0 0 4.56918,11.97562a39.29843,39.29843 0 0 0 11.99403,8.19869a127.43896,127.43896 0 0 0 16.9685,6.31943q9.54365,2.87415 19.51103,6.39314a175.02819,175.02819 0 0 1 19.51107,8.29081a65.22104,65.22104 0 0 1 16.9685,12.14141a56.72755,56.72755 0 0 1 11.99403,17.96343a64.24456,64.24456 0 0 1 4.56918,25.51725a83.5345,83.5345 0 0 1 -5.71145,31.02606a72.66434,72.66434 0 0 1 -16.58162,25.18563a76.82815,76.82815 0 0 1 -26.77009,16.91324a99.69238,99.69238 0 0 1 -36.14795,6.15364a114.96589,114.96589 0 0 1 -22.60625,-2.303a133.3162,133.3162 0 0 1 -22.29307,-6.48526a128.61809,128.61809 0 0 1 -20.26643,-9.93057a85.89276,85.89276 0 0 1 -16.4895,-12.80469l16.32367,-25.94103a16.36052,16.36052 0 0 1 5.1403,-4.67967a13.3574,13.3574 0 0 1 6.92744,-1.84241a18.53455,18.53455 0 0 1 9.87527,3.11366q4.9745,3.11366 11.25708,6.89059a90.812,90.812 0 0 0 14.44444,6.89059a53.83499,53.83499 0 0 0 19.25309,3.11366a36.53483,36.53483 0 0 0 23.34323,-6.65108a25.38831,25.38831 0 0 0 8.32766,-21.09549a20.04534,20.04534 0 0 0 -4.56914,-13.61534a35.39256,35.39256 0 0 0 -11.99403,-8.69614a111.35479,111.35479 0 0 0 -16.89483,-6.07993q-9.46997,-2.61621 -19.41892,-5.82198a141.5886,141.5886 0 0 1 -19.41895,-7.88548a61.27828,61.27828 0 0 1 -16.89479,-12.30727a57.44609,57.44609 0 0 1 -11.99406,-19.032a75.8517,75.8517 0 0 1 -4.56914,-28.15191a67.92937,67.92937 0 0 1 21.22447,-49.08157a77.80464,77.80464 0 0 1 25.62782,-16.01049a94.20202,94.20202 0 0 1 34.7661,-5.98781a129.28136,129.28136 0 0 1 21.29818,1.73188a111.77853,111.77853 0 0 1 19.67686,5.08503a107.98319,107.98319 0 0 1 17.39227,8.05127a80.27346,80.27346 0 0 1 14.44444,10.59384l-13.68905,25.73835z" data-name="Path 12425" id="svg_4"/>
     <path stroke="null" fill="#132650" d="m-388.84054,783.52379a48.06827,48.06827 0 0 0 12.89684,30.93394a38.193,38.193 0 0 0 26.93589,9.59891a47.90244,47.90244 0 0 0 15.18139,-2.1372a75.07787,75.07787 0 0 0 11.3492,-4.75338q4.9745,-2.61621 9.21203,-4.77182a18.97673,18.97673 0 0 1 8.73299,-2.13717a10.44642,10.44642 0 0 1 9.21199,4.42176l14.73921,18.22134a75.35425,75.35425 0 0 1 -16.89483,14.73921a87.42196,87.42196 0 0 1 -18.60826,8.86196a100.57671,100.57671 0 0 1 -19.08726,4.44017a142.78614,142.78614 0 0 1 -18.20293,1.23443a94.55208,94.55208 0 0 1 -33.38432,-5.82198a76.5518,76.5518 0 0 1 -27.26757,-17.3186a81.63683,81.63683 0 0 1 -18.42402,-28.55724a107.3015,107.3015 0 0 1 -6.76161,-39.72216a90.2777,90.2777 0 0 1 5.78516,-32.33416a78.32049,78.32049 0 0 1 42.92797,-44.97302a93.13341,93.13341 0 0 1 65.60793,-1.47393a66.91603,66.91603 0 0 1 23.95121,15.2551a69.80859,69.80859 0 0 1 15.67884,24.54077a90.59091,90.59091 0 0 1 5.63778,32.90532a71.9458,71.9458 0 0 1 -0.49748,9.35941a14.9603,14.9603 0 0 1 -1.84237,5.74827a6.87217,6.87217 0 0 1 -3.50057,2.94786a16.39738,16.39738 0 0 1 -5.63775,0.81066l-97.73944,-0.01844zm63.65499,-29.47842a44.95461,44.95461 0 0 0 -1.54761,-11.82824a28.74147,28.74147 0 0 0 -5.04818,-10.26215a25.79364,25.79364 0 0 0 -9.21203,-7.36962a31.4498,31.4498 0 0 0 -13.87329,-2.78204a30.19696,30.19696 0 0 0 -22.51413,8.29081a43.24118,43.24118 0 0 0 -10.77808,23.95124l62.97331,0z" data-name="Path 12426" id="svg_5"/>
     <path stroke="null" fill="#132650" d="m-258.26945,712.9412a102.87974,102.87974 0 0 1 34.02919,-20.26639a118.77964,118.77964 0 0 1 40.07223,-6.65108a72.97755,72.97755 0 0 1 27.63605,5.01133a59.49114,59.49114 0 0 1 20.89281,13.947a61.02034,61.02034 0 0 1 13.13634,21.26132a76.77289,76.77289 0 0 1 4.56914,26.91748l0,106.36187l-23.1774,0a23.58273,23.58273 0 0 1 -10.85175,-1.97138a14.99716,14.99716 0 0 1 -6.11678,-8.2171l-3.59269,-9.35941q-6.35628,5.41665 -12.23353,9.5252a77.3809,77.3809 0 0 1 -12.15986,6.9827a59.50959,59.50959 0 0 1 -13.37584,4.27438a82.15269,82.15269 0 0 1 -15.75252,1.40022a68.75844,68.75844 0 0 1 -21.04023,-3.03995a43.84916,43.84916 0 0 1 -16.0842,-8.93564a39.4274,39.4274 0 0 1 -10.20689,-14.73924a53.28228,53.28228 0 0 1 -3.59269,-20.26639a42.52264,42.52264 0 0 1 4.56918,-18.6267a45.8758,45.8758 0 0 1 15.84463,-17.22645a100.44777,100.44777 0 0 1 30.36279,-13.06263a203.29062,203.29062 0 0 1 48.14198,-5.9141l0,-7.22224a31.32083,31.32083 0 0 0 -6.11678,-21.57453a22.44045,22.44045 0 0 0 -17.37386,-6.65105a45.89424,45.89424 0 0 0 -14.73921,1.97138a65.25786,65.25786 0 0 0 -10.20689,4.44017q-4.49547,2.45041 -8.73299,4.42176a23.95124,23.95124 0 0 1 -10.1148,1.97138a14.48127,14.48127 0 0 1 -8.80667,-2.61621a22.84578,22.84578 0 0 1 -5.87728,-6.24575l-9.10147,-15.89993zm91.06995,77.3809a167.49277,167.49277 0 0 0 -24.96454,2.63462a60.44922,60.44922 0 0 0 -15.4946,4.91924a18.7925,18.7925 0 0 0 -7.92233,6.72476a16.01046,16.01046 0 0 0 -2.21088,8.19869a14.29703,14.29703 0 0 0 4.73497,12.23353a22.97475,22.97475 0 0 0 13.87329,3.53743a39.99855,39.99855 0 0 0 17.13433,-3.44531a52.25053,52.25053 0 0 0 14.84977,-11.16493l0,-23.63803z" data-name="Path 12427" id="svg_6"/>
     <path stroke="null" fill="#132650" d="m-34.98866,613.80173l0,245.64744l-50.59236,0l0,-245.64744l50.59236,0z" data-name="Path 12428" id="svg_7"/>
    </g>
    <path stroke="null" fill="#132650" d="m-1440.26241,790.45117l14.61024,19.5663l21.96145,0l0,-0.16583l7.90389,0c-4.80865,-6.50367 -9.21199,-13.00733 -13.13631,-19.40047l-31.33927,0z" data-name="Path 12429" id="svg_9"/>
    <path stroke="null" fill="#132650" d="m-1495.22127,715.48383l14.26021,20.76387l47.12864,0c-2.67151,-6.96429 -5.23242,-13.91014 -7.60912,-20.76387l-53.77972,0z" data-name="Path 12430" id="svg_10"/>
    <path stroke="null" fill="#132650" d="m-1523.02311,674.30615l16.82112,23.38008l58.71737,0c-2.5978,-8.03286 -4.9745,-15.71569 -7.11168,-22.9379l-68.42682,-0.44218z" data-name="Path 12431" id="svg_11"/>
    <path stroke="null" fill="#132650" d="m-1467.12462,754.24795l14.61024,18.42402l34.19498,0c-2.85571,-6.04307 -5.63775,-12.21512 -8.29081,-18.42402l-40.51441,0z" data-name="Path 12432" id="svg_12"/>
    <path stroke="null" fill="#132650" d="m-1165.68926,809.85164l0,0.16583l21.99827,0l14.62868,-19.5663l-33.16323,0c-3.88749,6.41155 -8.36452,12.89681 -13.21005,19.40047l9.74633,0z" data-name="Path 12433" id="svg_13"/>
    <path stroke="null" fill="#132650" d="m-1088.28995,736.2477l14.27862,-20.76387l-55.58527,0c-2.39512,6.83529 -4.97447,13.79958 -7.66439,20.76387l48.97105,0z" data-name="Path 12434" id="svg_14"/>
    <path stroke="null" fill="#132650" d="m-1063.01223,697.68623l16.83956,-23.38008l-70.21392,0.44218c-2.15562,7.22221 -4.53232,14.90504 -7.16694,22.9379l60.5413,0z" data-name="Path 12435" id="svg_15"/>
    <path stroke="null" fill="#132650" d="m-1116.79192,772.72724l14.62868,-18.42402l-42.37526,0q-3.99799,9.41468 -8.32766,18.42402l36.07424,0z" data-name="Path 12436" id="svg_16"/>
    <path stroke="null" fill="#132650" d="m-1142.05123,638.80306l-143.83633,-45.8758l0,-0.20268l-143.00723,45.89424l1.98979,8.76984a630.10148,630.10148 0 0 0 39.53796,117.06621c22.80893,46.77858 93.02288,104.48261 96.00757,106.85932l5.52722,4.44017l0,0.22109l5.52718,-4.49544c2.98468,-2.43197 73.69609,-60.13601 96.57872,-106.85932a627.5958,627.5958 0 0 0 39.77746,-117.06624l1.89767,-8.7514zm-161.83658,167.75069a3.68481,3.68481 0 0 1 -2.80045,2.52409c-1.51078,0.22109 -2.41356,-0.73695 -3.18736,-1.84237a97.22355,97.22355 0 0 1 -12.17827,-25.35146a80.88144,80.88144 0 0 1 -3.31634,-15.07086a87.29302,87.29302 0 0 1 1.93452,-36.53483a47.68135,47.68135 0 0 1 17.42913,-25.27775a32.88688,32.88688 0 0 1 46.55748,6.76161a53.42966,53.42966 0 0 1 10.88861,37.05072a5.52722,5.52722 0 0 1 -0.36847,1.84241c-0.60801,1.54761 -1.54764,2.89256 -3.42687,2.70833a3.16892,3.16892 0 0 1 -2.91101,-3.22422c-0.16583,-2.68988 0,-5.39824 -0.22109,-8.10657a39.22475,39.22475 0 0 0 -12.89681,-27.7834a27.63602,27.63602 0 0 0 -40.07226,3.55584a49.28426,49.28426 0 0 0 -11.0544,33.53171a86.29809,86.29809 0 0 0 14.84977,49.57902a5.87725,5.87725 0 0 1 0.7738,5.63775zm56.9855,-12.15982c-1.25284,1.38178 -3.09525,1.01331 -4.86394,1.45549a32.5184,32.5184 0 0 1 -32.35258,-17.81605a54.36929,54.36929 0 0 1 -7.09327,-31.32083a6.70635,6.70635 0 0 1 0.42377,-2.04505c0.60798,-1.56605 1.63972,-2.80045 3.50054,-2.57935a3.03995,3.03995 0 0 1 2.76362,3.03995c0.20265,2.76359 0.12894,5.52722 0.29477,8.34607a39.37213,39.37213 0 0 0 11.05443,26.10685a25.14878,25.14878 0 0 0 22.42201,7.09323c2.00823,-0.25795 3.68481,-0.12897 4.62444,1.95297a5.15874,5.15874 0 0 1 -0.73698,5.67457l-0.03682,0.09215zm15.18139,-40.21964a26.32791,26.32791 0 0 1 -11.14655,17.72389a17.53966,17.53966 0 0 1 -22.82734,-2.35826a28.00452,28.00452 0 0 1 -7.62757,-21.81403a20.72702,20.72702 0 0 0 -2.72674,-12.04933a12.63889,12.63889 0 0 0 -21.39029,-1.43708a23.39849,23.39849 0 0 0 -4.49547,15.77096a64.99995,64.99995 0 0 0 11.60714,38.69045a46.06004,46.06004 0 0 0 18.55299,15.40248a4.73497,4.73497 0 0 1 3.05836,6.31943a3.39001,3.39001 0 0 1 -5.28768,2.303a53.8534,53.8534 0 0 1 -26.19894,-25.53567a76.03594,76.03594 0 0 1 -8.08816,-44.36505a26.58586,26.58586 0 0 1 10.05951,-18.66352a17.70548,17.70548 0 0 1 24.68819,1.84241a28.26244,28.26244 0 0 1 7.16694,21.48238a20.26643,20.26643 0 0 0 2.52409,11.58873a12.89681,12.89681 0 0 0 22.90108,0a24.94613,24.94613 0 0 0 3.16892,-13.32058a66.12382,66.12382 0 0 0 -14.02067,-43.14906a42.59632,42.59632 0 0 0 -33.91862,-17.28171a44.03339,44.03339 0 0 0 -31.4498,13.24687a65.51581,65.51581 0 0 0 -19.52948,43.44383a123.44093,123.44093 0 0 0 1.95297,32.55526a7.90389,7.90389 0 0 1 0.22109,3.37157c-0.46059,1.84241 -1.27125,3.3716 -3.44531,3.35319s-2.89256,-1.5292 -3.18733,-3.24263c-0.55274,-3.18736 -0.92122,-6.39314 -1.3634,-9.5805a102.36385,102.36385 0 0 1 4.10855,-50.53709a64.77886,64.77886 0 0 1 29.58898,-35.55835a47.16549,47.16549 0 0 1 57.85142,8.97249a72.36954,72.36954 0 0 1 19.80583,45.87583a62.34689,62.34689 0 0 1 -0.5343,16.87638l-0.01841,0.07371zm8.9909,-50.7766a3.46372,3.46372 0 0 1 -3.03995,2.50565a2.98468,2.98468 0 0 1 -3.00313,-2.10032a86.33495,86.33495 0 0 0 -8.78826,-15.16298a58.49625,58.49625 0 0 0 -90.7383,-6.09834a78.52317,78.52317 0 0 0 -10.52013,13.08104c-0.95804,1.47393 -1.84237,3.11366 -4.1454,2.28459a4.21911,4.21911 0 0 1 -2.17403,-5.30612a7.86707,7.86707 0 0 1 0.93963,-2.13717a77.03083,77.03083 0 0 1 35.94527,-31.15503a61.27828,61.27828 0 0 1 14.48127,-3.94272a64.48406,64.48406 0 0 1 61.31514,26.97274a92.89391,92.89391 0 0 1 9.48838,15.89993a5.96937,5.96937 0 0 1 0.27636,5.1403l-0.03685,0.01844zm1.17913,-31.4498a3.68481,3.68481 0 0 1 -3.24263,2.303a2.96627,2.96627 0 0 1 -3.09521,-1.84241a70.45346,70.45346 0 0 0 -8.97249,-13.15475a60.79925,60.79925 0 0 0 -43.48072,-20.81914a70.6377,70.6377 0 0 0 -51.45828,17.48439a78.35735,78.35735 0 0 0 -11.33076,11.84665c-1.03175,1.32651 -2.08191,2.80045 -4.40335,2.10035a3.40845,3.40845 0 0 1 -2.15562,-4.64288a6.81688,6.81688 0 0 1 1.03175,-1.84237a83.68188,83.68188 0 0 1 38.37724,-28.46512a75.7964,75.7964 0 0 1 15.27351,-3.83219a70.01128,70.01128 0 0 1 63.61814,22.51413a75.83326,75.83326 0 0 1 9.5805,13.89173a4.51388,4.51388 0 0 1 0.29477,4.38491l-0.03685,0.07371z" data-name="Path 12437" id="svg_17"/>
    <path stroke="null" fill="#132650" d="m-1116.38656,674.74833c8.32763,-27.98608 13.1179,-48.54731 13.50478,-50.27915l1.6029,-7.00111l-185.10614,-58.77264l-183.20843,58.55155l1.60287,7.00111c0.38692,1.73184 5.17715,22.42204 13.50481,50.50024c2.1372,7.22221 4.51388,14.90504 7.11168,22.9379c1.84241,5.80357 3.86905,11.73612 5.98781,17.7976c2.39512,6.85373 4.93765,13.79958 7.60912,20.76387q3.48213,9.0462 7.24065,18.00025c2.65303,6.28261 5.41665,12.43621 8.29081,18.42402c0.7738,1.63976 1.5292,3.31634 2.303,4.91924c2.06346,4.20067 4.47702,8.47505 7.07482,12.80469c3.86905,6.41155 8.32766,12.89681 13.13631,19.40047a716.87861,716.87861 0 0 0 105.71704,107.20938l4.18226,3.40845l3.92431,-3.18736a717.52344,717.52344 0 0 0 106.52767,-107.43047c4.82709,-6.50367 9.32256,-13.00733 13.21002,-19.40047c2.57939,-4.23752 4.93765,-8.45663 6.9827,-12.58363c0.8291,-1.69499 1.62131,-3.42687 2.43197,-5.1403q4.31123,-9.06461 8.32766,-18.42402c2.52409,-5.96937 4.93765,-11.97559 7.2775,-18.00025c2.68988,-6.96429 5.26927,-13.91014 7.66439,-20.76387c2.13717,-6.06148 4.10855,-11.97562 6.00622,-17.7976c2.56094,-7.94074 4.93765,-15.71569 7.09327,-22.9379zm-166.31364,222.48845l-3.3163,2.81889l-3.31634,-2.8373c-26.29109,-22.55101 -89.87237,-80.01552 -112.62604,-126.46247a788.23484,788.23484 0 0 1 -47.90244,-138.34597l-1.17913,-4.66126l165.04236,-52.50847l166.09252,52.72956l-1.19754,4.66126a785.02904,785.02904 0 0 1 -48.28936,138.36438c-22.80893,46.15219 -86.83239,103.65354 -113.30772,126.24138z" data-name="Path 12438" id="svg_18"/>
    <path stroke="null" fill="#132650" d="m917.99371,763.12836a52.21367,52.21367 0 0 0 -10.53854,-7.22224a83.25814,83.25814 0 0 0 21.31659,-11.71767a72.73801,72.73801 0 0 0 15.53146,-16.23155a70.32449,70.32449 0 0 0 9.50679,-19.78739a78.52317,78.52317 0 0 0 3.22419,-22.75366a77.10451,77.10451 0 0 0 -5.52718,-29.22051a58.27516,58.27516 0 0 0 -17.41072,-23.26952a85.92962,85.92962 0 0 0 -30.9155,-15.36563a165.11607,165.11607 0 0 0 -45.78368,-5.52722l-80.51296,0l0,247.48985l57.61192,0l0,-92.12011l14.64709,0a16.729,16.729 0 0 1 16.69215,8.88041l41.21454,72.27742a22.10883,22.10883 0 0 0 20.78228,10.92543l51.58725,0l-52.65582,-86.11386a50.55551,50.55551 0 0 0 -8.76984,-10.24374zm-17.96343,-57.11447a31.92884,31.92884 0 0 1 -7.79336,12.54674a36.84804,36.84804 0 0 1 -13.78117,8.40137a60.22813,60.22813 0 0 1 -20.26639,3.02154l-23.69329,0l0,-74.81995l23.54588,0a50.37127,50.37127 0 0 1 33.5133,9.35941a32.5184,32.5184 0 0 1 10.8149,25.97788a48.12353,48.12353 0 0 1 -2.33985,15.53142l0,-0.01841z" data-name="Path 12439" id="svg_19"/>
    <path stroke="null" fill="#132650" d="m1190.28215,647.18599a119.90351,119.90351 0 0 0 -40.53282,-25.79361a142.15972,142.15972 0 0 0 -52.58215,-9.341l-96.13654,0l0,247.48985l96.13654,0a143.39415,143.39415 0 0 0 52.58215,-9.21199a118.19007,118.19007 0 0 0 40.53282,-25.79361a115.73969,115.73969 0 0 0 26.07,-39.24319a136.57724,136.57724 0 0 0 0,-98.86328a114.87377,114.87377 0 0 0 -26.07,-39.24316zm-26.08841,123.05402a70.47187,70.47187 0 0 1 -13.59693,24.90928a59.0674,59.0674 0 0 1 -21.70347,15.71569a73.69609,73.69609 0 0 1 -29.22051,5.52722l-38.17456,0l0,-158.28075l38.17456,0a73.69609,73.69609 0 0 1 29.22051,5.52718a59.15952,59.15952 0 0 1 21.70347,15.71569a70.4166,70.4166 0 0 1 13.59693,24.90928a117.74792,117.74792 0 0 1 0,66.05011l0,-0.07371z" data-name="Path 12440" id="svg_20"/>
    <path stroke="null" fill="#132650" d="m600.87931,612.03297l-95.80492,247.48985l44.9362,0a18.71879,18.71879 0 0 0 11.97562,-3.81378a20.72702,20.72702 0 0 0 6.70635,-8.58557l14.61024,-43.14906l13.24687,-39.05892l22.77207,-67.43192q2.54253,-6.4484 5.52722,-15.29192t5.52722,-19.19782q2.89256,10.18848 5.78513,18.93988t5.4351,15.19984l22.9379,67.78195l13.08104,39.05892l14.61024,43.14906a22.10883,22.10883 0 0 0 6.96429,8.91723a19.43733,19.43733 0 0 0 12.06774,3.48213l44.51243,0l-95.80492,-247.48985l-59.08582,0z" data-name="Path 12441" id="svg_21"/>
    <path stroke="null" fill="#132650" d="m444.88332,757.02999a75.33581,75.33581 0 0 1 -3.26107,23.10373a48.12353,48.12353 0 0 1 -9.46994,17.22645a41.30666,41.30666 0 0 1 -15.18139,10.83334a56.85652,56.85652 0 0 1 -40.77236,0a40.7355,40.7355 0 0 1 -15.18139,-10.92546a48.69469,48.69469 0 0 1 -9.46994,-17.30015a75.18843,75.18843 0 0 1 -3.27948,-23.10373l0,-144.8312l-56.83808,0l0,144.99702a114.37632,114.37632 0 0 0 7.22221,41.32507a91.71478,91.71478 0 0 0 20.83755,32.42628a94.27572,94.27572 0 0 0 33.16326,21.1692a131.41853,131.41853 0 0 0 87.86414,0a94.40466,94.40466 0 0 0 33.16323,-21.1692a92.74653,92.74653 0 0 0 20.91126,-32.42628a113.23401,113.23401 0 0 0 7.36962,-41.32507l0,-144.99702l-56.83811,0l-0.2395,144.99702z" data-name="Path 12442" id="svg_22"/>
    <path stroke="null" fill="#132650" d="m128.48769,679.68595a60.79925,60.79925 0 0 1 21.42712,-15.71566a69.20062,69.20062 0 0 1 28.28088,-5.52722a125.11751,125.11751 0 0 1 15.21825,0.82907a78.13626,78.13626 0 0 1 12.89681,2.65306a75.83326,75.83326 0 0 1 11.99403,4.73497q5.87728,2.91101 12.49151,6.89059a17.30015,17.30015 0 0 0 12.89681,2.98472a15.56831,15.56831 0 0 0 9.83841,-7.14853l16.21314,-24.76189a110.02824,110.02824 0 0 0 -16.58162,-12.89681a112.38653,112.38653 0 0 0 -20.43222,-10.29904a138.18015,138.18015 0 0 0 -24.39342,-6.81688a152.69827,152.69827 0 0 0 -28.28085,-2.48724a144.53643,144.53643 0 0 0 -52.6743,9.21199a115.7581,115.7581 0 0 0 -40.18279,25.59096a112.12859,112.12859 0 0 0 -25.55411,39.13263a134.80854,134.80854 0 0 0 -8.93564,49.74485a127.12575,127.12575 0 0 0 9.43309,49.28426a113.80517,113.80517 0 0 0 26.78854,39.22475a124.67533,124.67533 0 0 0 41.76725,25.92258a149.63987,149.63987 0 0 0 54.16661,9.37782a154.26431,154.26431 0 0 0 43.73863,-6.1536a126.29665,126.29665 0 0 0 39.55637,-19.89795l0,-103.50616l-87.16405,0l0,31.89198a9.78315,9.78315 0 0 0 3.02154,7.36962a11.60714,11.60714 0 0 0 8.40137,2.91101l25.11193,0l0,36.73748a102.34544,102.34544 0 0 1 -15.9552,5.32454a77.3809,77.3809 0 0 1 -18.27664,1.98979a79.66545,79.66545 0 0 1 -29.86531,-5.39824a63.87608,63.87608 0 0 1 -23.15899,-15.71566a70.91405,70.91405 0 0 1 -14.9603,-25.25934a102.27173,102.27173 0 0 1 -5.28771,-34.23183a98.64219,98.64219 0 0 1 4.79023,-31.67089a71.172,71.172 0 0 1 13.67064,-24.31971z" data-name="Path 12443" id="svg_23"/>
    <path stroke="null" fill="#132650" d="m1762.25608,612.03297l0,130.95794q0,5.95096 0.35006,12.65727t1.21599,13.83647l-120.45622,-148.62657a45.37835,45.37835 0 0 0 -4.34808,-4.58759a15.84467,15.84467 0 0 0 -3.99802,-2.63465a16.58162,16.58162 0 0 0 -4.69812,-1.27125a51.34775,51.34775 0 0 0 -6.42999,-0.33162l-25.66464,0l0,247.48985l51.7899,0l0,-132.65293q0,-5.4351 -0.25795,-11.644t-0.95804,-12.89681l119.4245,147.61323a27.63602,27.63602 0 0 0 9.21199,7.36962a27.19387,27.19387 0 0 0 11.38605,2.11876l25.31461,0l0,-247.39773l-51.88205,0z" data-name="Path 12444" id="svg_24"/>
    <path stroke="null" fill="#132650" d="m1422.09338,612.03297l-95.80492,247.48985l44.84408,0a18.71879,18.71879 0 0 0 11.97562,-3.81378a20.67176,20.67176 0 0 0 6.70632,-8.58557l14.61027,-43.14906l13.24687,-39.05892l22.77207,-67.43192q2.54253,-6.4484 5.4351,-15.29192t5.52722,-19.19782q2.89256,10.18848 5.78513,18.93988t5.52722,15.19984l22.9379,67.78195l13.08104,39.05892l14.61024,43.14906a22.10883,22.10883 0 0 0 6.96429,8.91723a19.45577,19.45577 0 0 0 12.06774,3.48213l44.32819,0l-95.80492,-247.48985l-58.80946,0z" data-name="Path 12445" id="svg_25"/>
    <rect stroke="null" x="1247.17565" y="612.03298" fill="#132650" height="247.48985" width="57.55664" data-name="Rectangle 2215" id="svg_26"/>
   </g>
  </g>
 </g>
</svg>