<svg xmlns="http://www.w3.org/2000/svg" width="139.335" height="58.583" viewBox="0 0 139.335 58.583">
    <defs>
        <style>
            .cls-1{fill:#132650}
        </style>
    </defs>
    <g id="Group_10656" transform="translate(-960.749 -919.492)">
        <path id="Path_10192" d="M1075.574 976.2H1060.9a.265.265 0 0 1-.169-.369s9.331-16.817 11.97-21.907c6.1-11.728-.146-9.22 1.425-11.212 2.067-2.36 7.558-5.237 11.687-5.237 5.976 0 8.043 4.278 4.4 11.212-3.014 5.754-14.115 27.07-14.115 27.07a.727.727 0 0 1-.522.443" class="cls-1"/>
        <path id="Path_10193" d="M1087.2 933.212c-4.721 0-7-3.024-5.014-6.86 1.959-3.762 7.452-6.86 12.172-6.86s6.974 3.1 5.015 6.86c-1.985 3.836-7.452 6.86-12.173 6.86" class="cls-1"/>
        <path id="Path_10194" d="M1021.776 923.086a1.863 1.863 0 0 0-1.295.993c-2.191 4.111-16.1 32.223-16.95 33.193-3.084 3.3-6.555 4.4-10.836 4.4-6.591 0-2.426-.035-8.929 0a14.147 14.147 0 0 0-3.212.366c-5.309 1.269-9.711 4.565-13.746 8.542-2.218 2.187-8.358 7.747-5.15 7.492 11.446 0 24.928-.076 31.383-.076s14.881-6.944 18.932-15.777c2.762-6.021 5.415-12.109 8.115-18.167.646-1.449 7.557-16.22 8.752-18.734.746-1.572-.4-3.448-1.931-3.167z" class="cls-1"/>
        <path id="Path_10195" d="M1036.06 970.188c5.753 0 13.181-9.924 16.623-17.959 3.427-7.967 4.487-18.094-1.12-18.094s-13.23 10.127-16.656 18.094c-3.289 7.7-4.38 17.959 1.153 17.959m-3.183 7.562c-15.49 0-20.483-11.68-14.64-25.521 5.9-13.773 21.019-25.656 36.509-25.656 15.564 0 20.508 11.883 14.607 25.656-5.916 13.841-20.618 25.521-36.476 25.521" class="cls-1"/>
    </g>
</svg>
