<svg xmlns="http://www.w3.org/2000/svg" width="139.667" height="81.604" viewBox="0 0 139.667 81.604">
    <defs>
        <style>
            .cls-1{fill:#132650}
        </style>
    </defs>
    <g id="Group_10651" transform="translate(-1935.548 -10556.848)">
        <path id="Path_10781" d="M2126.379 10617.688a28.182 28.182 0 0 1 1.86-9.1 40.4 40.4 0 0 1 6.977-11.772 45.687 45.687 0 0 1 9.665-8.716 39.5 39.5 0 0 1 14.24-6.1 33.035 33.035 0 0 1 4.874-.6 24.71 24.71 0 0 1 7.89.775 14.6 14.6 0 0 1 6.858 3.928 13.435 13.435 0 0 1 3.459 6.825 17.458 17.458 0 0 1 .332 4.234 27.945 27.945 0 0 1-2.189 9.394 41.922 41.922 0 0 1-6.65 10.937 44.435 44.435 0 0 1-9.771 8.747 38.062 38.062 0 0 1-14.256 5.863 48 48 0 0 1-4.81.54 22.969 22.969 0 0 1-7.551-.7 14.668 14.668 0 0 1-6.923-3.818 13.149 13.149 0 0 1-3.637-7.214c-.185-1.061-.247-2.147-.368-3.223zm16.526 1.152c0 .369-.018.739 0 1.107a8.6 8.6 0 0 0 .62 2.9 3.348 3.348 0 0 0 3.256 2.185 7.072 7.072 0 0 0 2.861-.732 17.492 17.492 0 0 0 4.8-3.655 42.094 42.094 0 0 0 5.913-7.79 43.2 43.2 0 0 0 4.392-9.579 30.108 30.108 0 0 0 1.408-7.4 10.31 10.31 0 0 0-.609-4.562 3.326 3.326 0 0 0-2.879-2.273 5.8 5.8 0 0 0-2.859.537 15.144 15.144 0 0 0-4.376 3.063 36.448 36.448 0 0 0-4.8 5.63 44.582 44.582 0 0 0-6.165 11.884 28.263 28.263 0 0 0-1.562 8.685z" class="cls-1" transform="translate(-135.69 -17.429)"/>
        <path id="Path_10782" d="M1963.708 10605.521c1.629 0 3.258.034 4.886-.008a13 13 0 0 0 9.632-4.192 7.932 7.932 0 0 0 1.1-1.753q2.307-4.441 4.573-8.905c1.678-3.3 3.337-6.619 5-9.93l4.771-9.467c.563-1.111 1.139-2.218 1.719-3.321a1.884 1.884 0 0 1 1.386-1.043c1.692-.308 3.381-.635 5.076-.929a1.71 1.71 0 0 1 1.832.852 2.323 2.323 0 0 1 .16 2.346c-.841 1.8-1.7 3.591-2.526 5.395q-4.326 9.39-8.636 18.787c-2.06 4.517-4.044 9.067-6.122 13.576a31.635 31.635 0 0 1-10.791 12.346 16.469 16.469 0 0 1-6.3 2.576 9.023 9.023 0 0 1-1.136.105c-.554.02-1.109.008-1.663.01l-30.251.069a2.437 2.437 0 0 1-.414-.018.467.467 0 0 1-.42-.626 3.149 3.149 0 0 1 .488-1.02c.83-1 1.656-2.019 2.572-2.942a77.867 77.867 0 0 1 6.964-6.49 25.837 25.837 0 0 1 9.417-4.929 14.487 14.487 0 0 1 3.456-.473c1.744-.029 3.489-.007 5.233-.007z" class="cls-1" transform="translate(0 -6.467)"/>
        <path id="Path_10783" d="M2289.748 10657.98h-7c-.659 0-.734-.133-.423-.7 2.191-3.973 4.395-7.939 6.564-11.924 1.982-3.639 3.954-7.285 5.875-10.957a18.832 18.832 0 0 0 2.009-5.475 7.1 7.1 0 0 0 .073-1.582 2.3 2.3 0 0 0-1.058-1.781c-.6-.43-.616-.719-.113-1.264a13.631 13.631 0 0 1 3.229-2.482 19.918 19.918 0 0 1 6.429-2.488 9.933 9.933 0 0 1 4.465.105 4.616 4.616 0 0 1 3.721 4.029 8.678 8.678 0 0 1-.4 3.758 22.7 22.7 0 0 1-1.69 3.865q-1.575 3.009-3.145 6.016l-6.9 13.238c-1.244 2.385-2.494 4.766-3.732 7.154a.8.8 0 0 1-.794.488c-2.374-.003-4.742 0-7.11 0z" class="cls-1" transform="translate(-246.45 -44.285)"/>
        <path id="Path_10784" d="M2360.282 10570.669a8.426 8.426 0 0 1-3.89-.755 3.817 3.817 0 0 1-2.2-4.124 6.7 6.7 0 0 1 1.42-3.229 14.427 14.427 0 0 1 6.029-4.518 13.635 13.635 0 0 1 5.9-1.187 7.2 7.2 0 0 1 2.978.7 3.962 3.962 0 0 1 2.128 4.988 9.021 9.021 0 0 1-2.655 3.99 15.65 15.65 0 0 1-8 3.934c-.678.122-1.36.162-1.71.201z" class="cls-1" transform="translate(-297.648)"/>
        <path id="Path_10785" d="M1998.858 10803.693v1.518c0 1.639-.007 3.279.005 4.918 0 .328-.1.461-.437.438a8.918 8.918 0 0 0-.969 0c-.256.01-.35-.1-.345-.35.01-.494 0-.992 0-1.488v-9.213c0-.475 0-.479.486-.479h.416c.951.012.715-.117 1.085.732.876 2.01 1.732 4.029 2.6 6.045.076.176.161.348.283.613.2-.467.368-.84.527-1.217q1.232-2.918 2.456-5.842a.467.467 0 0 1 .523-.338 5.619 5.619 0 0 0 .831 0c.324-.023.485.088.441.428a.563.563 0 0 0 0 .07v10.529c0 .5 0 .5-.5.506-.3 0-.6-.01-.9 0-.252.01-.366-.092-.347-.344.007-.094 0-.186 0-.277v-6.262l-.073-.02c-.191.436-.387.869-.574 1.3-.515 1.2-1.035 2.4-1.535 3.6a.553.553 0 0 1-.6.391c-1.026-.008-1.027 0-1.437-.947l-1.865-4.322z" class="cls-1" transform="translate(-43.775 -172.201)"/>
        <path id="Path_10786" d="M2050.119 10803.17c0-1.236.009-2.471-.006-3.707 0-.334.108-.457.439-.434a5.777 5.777 0 0 0 .9 0c.328-.023.416.119.414.424q-.012 3.363 0 6.723a5.162 5.162 0 0 0 .035.76 2.275 2.275 0 0 0 4.522-.385c.016-2.287 0-4.574.005-6.861 0-.654 0-.654.657-.654.254 0 .508.008.762 0s.326.1.325.334c0 2.482.033 4.965-.015 7.447a3.727 3.727 0 0 1-2.8 3.664 4.085 4.085 0 0 1-4.537-1.492 3.735 3.735 0 0 1-.692-2.213c-.017-1.2 0-2.4 0-3.6z" class="cls-1" transform="translate(-81.461 -172.201)"/>
        <path id="Path_10787" d="M2290.844 10810.553c-.6 0-1.145.017-1.682-.013-.095-.006-.219-.185-.263-.308q-.336-.927-.632-1.869a.464.464 0 0 0-.527-.372q-1.714.022-3.428 0a.456.456 0 0 0-.524.37c-.191.629-.421 1.247-.62 1.873a.42.42 0 0 1-.482.331c-.469-.018-.94 0-1.468 0 .044-.176.063-.3.1-.408l3.8-10.7a.548.548 0 0 1 .629-.429c1.25.043.946-.19 1.355.954q1.827 5.1 3.637 10.2c.035.096.056.195.105.371zm-3.218-4.123l-1.6-4.942-1.6 4.942z" class="cls-1" transform="translate(-245.789 -172.201)"/>
        <path id="Path_10788" d="M2198.621 10804.784v-5.266c0-.459.008-.468.464-.468h3.986a3.147 3.147 0 0 1 2.962 1.706 3.56 3.56 0 0 1-.067 3.668 3.242 3.242 0 0 1-3 1.649c-.728 0-1.456.013-2.183-.006-.314-.007-.426.091-.422.413.015 1.2.006 2.4.005 3.6 0 .492 0 .493-.508.5h-.728c-.5 0-.506 0-.507-.494q-.004-2.651-.002-5.302zm1.745-2.222v1.522c0 .167.036.3.243.3.9-.02 1.8.01 2.693-.074a1.61 1.61 0 0 0 1.431-1.748c.006-1.021-.439-1.642-1.4-1.739-.9-.092-1.818-.058-2.728-.079-.207 0-.244.131-.244.3.005.504.004 1.011.004 1.519z" class="cls-1" transform="translate(-187.058 -172.218)"/>
        <path id="Path_10789" d="M2321.557 10799.05c.621 0 1.182-.016 1.74.015.1.006.214.192.273.318.666 1.409 1.323 2.822 1.984 4.234.056.12.123.234.222.423.1-.215.169-.356.236-.5.644-1.382 1.294-2.761 1.926-4.146a.537.537 0 0 1 .583-.366c.458.022.918.006 1.444.006-.077.184-.122.309-.181.427-1 1.993-2 3.984-2.982 5.984a1.979 1.979 0 0 0-.192.822c-.02 1.293-.016 2.587 0 3.88 0 .313-.1.442-.418.419a6.244 6.244 0 0 0-.865 0c-.307.021-.4-.107-.4-.4.011-1.294.017-2.587 0-3.88a2.076 2.076 0 0 0-.2-.855c-.977-1.99-1.976-3.97-2.967-5.953-.074-.123-.123-.248-.203-.428z" class="cls-1" transform="translate(-274.472 -172.203)"/>
        <path id="Path_10790" d="M2132.655 10805.574c0-1.524-.008-3.047.006-4.57 0-.319-.1-.422-.416-.414-.773.019-1.547 0-2.32.01-.289 0-.4-.105-.381-.386s.011-.554 0-.83c-.009-.256.1-.345.354-.341.681.009 1.362 0 2.043 0H2137c.453 0 .458.008.461.47.008 1.08.008 1.08-1.063 1.08-.531 0-1.063.02-1.593-.007-.366-.018-.412.159-.411.461q.01 4.431 0 8.862c0 .1-.005.208 0 .312.013.243-.08.362-.342.353-.346-.014-.693-.018-1.039 0-.305.016-.365-.134-.364-.4.009-1.53.006-3.066.006-4.6z" class="cls-1" transform="translate(-137.939 -172.213)"/>
        <path id="Path_10791" d="M2097.388 10804.807v-5.3c0-.458.009-.464.464-.466.3 0 .6.013.9 0s.385.106.382.385c-.01.867 0 1.732 0 2.6v6.373c0 .485 0 .487.473.487h4.469c.542 0 .543 0 .544.559 0 .266-.008.531 0 .8.008.23-.076.337-.32.336q-3.292-.007-6.583 0c-.335 0-.33-.2-.33-.434q.003-2.674.001-5.34z" class="cls-1" transform="translate(-115.075 -172.208)"/>
        <path id="Path_10792" d="M2242.983 10804.774v-5.265c0-.473 0-.476.488-.478.277 0 .556.019.831 0 .345-.029.445.124.428.445-.019.379 0 .761 0 1.142v7.793c0 .461 0 .463.463.463 1.524 0 3.049.01 4.573-.006.346 0 .486.1.455.451a7.225 7.225 0 0 0 0 .9c.01.253-.09.351-.344.348-.635-.011-1.27 0-1.905 0-1.513 0-3.026-.01-4.539.007-.356 0-.453-.118-.45-.46.008-1.785 0-3.562 0-5.34z" class="cls-1" transform="translate(-218.598 -172.2)"/>
        <path id="Path_10793" d="M2174.563 10804.855v5.259c0 .456-.009.463-.465.465h-.865c-.465 0-.474-.01-.475-.492v-1.038-9.48c0-.516 0-.516.52-.518h.722c.558 0 .559 0 .559.546q.005 2.628.004 5.258z" class="cls-1" transform="translate(-168.668 -172.219)"/>
    </g>
</svg>
