<svg xmlns="http://www.w3.org/2000/svg" width="129.655" height="89.157" viewBox="0 0 129.655 89.157">
    <defs>
        <style>
            .cls-1{fill:#132650}
        </style>
    </defs>
    <g id="Group_10654" transform="translate(-359.904 -11285.328)">
        <path id="Path_10775" d="M616.919 11503.162a1.9 1.9 0 0 1 .231.355 3.246 3.246 0 0 1 .274 1.3c-.03.936-.04 1.873-.064 2.811 0 .174.053.285.234.289a3.169 3.169 0 0 0 .9-.008 6.955 6.955 0 0 1 1.416-.141c.215-.014.431-.033.644-.064.7-.094 1.4-.189 2.094-.295.651-.1 1.3-.207 1.952-.307.583-.088 1.168-.164 1.752-.242.682-.094 1.364-.182 2.047-.271.756-.1 1.513-.186 2.268-.289.684-.094 1.365-.205 2.047-.3q.683-.1 1.368-.187a1.333 1.333 0 0 1 .216-.012c.13.006.279 0 .308.172a.3.3 0 0 1-.214.338c-.467.186-.94.357-1.406.547-.413.166-.817.355-1.232.516-.759.3-1.522.586-2.286.871-.646.242-1.289.488-1.944.7-1.145.379-2.3.736-3.446 1.1-.739.232-1.477.467-2.219.693-.521.154-1.05.285-1.571.443-.331.1-.652.229-.977.346-.958.35-1.923.682-2.872 1.059a12.727 12.727 0 0 0-1.883.865 16.312 16.312 0 0 0-2.675 1.809 15.784 15.784 0 0 0-1.432 1.486 13.17 13.17 0 0 0-1.209 1.832 11.585 11.585 0 0 0-1.143 2.7c-.184.65-.32 1.313-.47 1.971-.106.463-.2.926-.3 1.393a1.024 1.024 0 0 0 .075.75c.875-.285 1.753-.574 2.634-.859.708-.229 1.394-.518 2.119-.7a15.4 15.4 0 0 0 1.446-.543c.673-.246 1.356-.461 2.025-.719.524-.2 1.035-.43 1.547-.658.351-.158.691-.338 1.042-.5a.872.872 0 0 1 .271-.021.728.728 0 0 1-.017.277.751.751 0 0 1-.214.207c-.225.176-.459.342-.68.525-.631.521-1.257 1.051-1.886 1.576-.421.352-.846.7-1.265 1.049s-.839.746-1.283 1.088c-.591.457-1.207.879-1.81 1.318-.778.568-1.535 1.164-2.333 1.7-.894.6-1.822 1.154-2.737 1.723-.293.184-.6.34-.886.533a2.6 2.6 0 0 1-1.8.289 3.829 3.829 0 0 1-2.293-1.088 10.037 10.037 0 0 0-1.166-.965 3.436 3.436 0 0 0-.951-.4.6.6 0 0 0-.4.1c-.485.281-.962.58-1.439.873-.709.438-1.415.881-2.126 1.316-.331.2-.675.385-1 .592a26.521 26.521 0 0 1-3.758 1.934 11.738 11.738 0 0 1-1.814.531.7.7 0 0 1-.464-.16c-.305-.217-.582-.471-.882-.693a5.765 5.765 0 0 0-1.554-.918 9.918 9.918 0 0 0-1.165-.3.559.559 0 0 0-.287.063 15.271 15.271 0 0 0-2.519 1.32c-.628.373-1.247.766-1.862 1.162-.445.287-.876.6-1.314.895-.558.379-1.107.773-1.676 1.135-.725.463-1.457.918-2.2 1.342a8.973 8.973 0 0 1-2.063.842.549.549 0 0 1-.523-.09c-.581-.426-1.2-.8-1.754-1.26a13.029 13.029 0 0 1-1.931-1.66.717.717 0 0 0-1.106-.055c-.808.74-1.6 1.494-2.416 2.227q-1.33 1.2-2.682 2.381c-.443.389-.887.779-1.36 1.129s-1 .662-1.5 1a.561.561 0 0 1-.575.035 5.8 5.8 0 0 1-2.489-1.8 1.869 1.869 0 0 1-.347-.781 3.557 3.557 0 0 1 .319-2.352 17.428 17.428 0 0 1 1.566-2.484 16.124 16.124 0 0 0 1.081-1.617 4.73 4.73 0 0 0 .42-.992.854.854 0 0 0-.284-.9 1.956 1.956 0 0 0-.987-.494 1.428 1.428 0 0 0-1.47.33 4.151 4.151 0 0 1-.57.457 6.481 6.481 0 0 0-.655.488c-.572.57-1.142 1.141-1.679 1.742s-1.073 1.248-1.57 1.9c-.567.744-1.093 1.518-1.633 2.281-.466.658-.925 1.322-1.389 1.98-.265.375-.525.754-.8 1.121-.35.457-.7.918-1.081 1.348-.516.582-1.042 1.16-1.6 1.7s-1.141 1.057-1.74 1.553a8.846 8.846 0 0 1-1.012.65.33.33 0 0 1-.165.031 3.34 3.34 0 0 1-2.284-.846 9.363 9.363 0 0 1-.928-.9 2.2 2.2 0 0 1-.381-2.461c.288-.645.674-1.24 1-1.867a10.636 10.636 0 0 0 .589-1.293 1.616 1.616 0 0 0 .031-.725c-.04-.3-.194-.361-.488-.27-.473.146-.956.26-1.427.416-.594.193-1.179.414-1.768.621-.323.115-.647.223-.969.34-.337.123-.673.246-1.007.377-.265.105-.521.232-.79.322a.356.356 0 0 1-.3-.055.321.321 0 0 1 .041-.3 10.16 10.16 0 0 1 .936-.951c.383-.324.806-.6 1.214-.9.64-.461 1.277-.93 1.928-1.377.45-.311.922-.59 1.381-.887.531-.346 1.059-.691 1.591-1.035.35-.229.721-.426 1.049-.68a4.709 4.709 0 0 0 .735-.727c.369-.441.7-.912 1.067-1.355.669-.812 1.357-1.609 2.028-2.42.468-.564.922-1.143 1.381-1.717.255-.32.38-.352.65-.041a6.411 6.411 0 0 1 .741 1.055 3.971 3.971 0 0 1 .237 2.451 4.062 4.062 0 0 1-.446 1.256c-.306.65-.658 1.279-.987 1.92s-.666 1.244-.952 1.889a1.856 1.856 0 0 0-.292.975.308.308 0 0 1-.043.164 1.918 1.918 0 0 0-.029 1.377 1.273 1.273 0 0 0 .487.783c.3-.189.625-.365.917-.588a11.931 11.931 0 0 0 2.343-2.35c.57-.758 1.09-1.557 1.613-2.354.3-.455.568-.936.84-1.412.25-.436.476-.891.731-1.324.583-.994 1.167-1.988 1.768-2.975a9.149 9.149 0 0 1 1.772-2.061 3.95 3.95 0 0 1 1.917-1.014.411.411 0 0 0 .083-.021c.44-.143.618-.059.771.373.072.2.128.41.21.609a.705.705 0 0 0 .654.482c.732.041 1.464.109 2.2.148a1.1 1.1 0 0 0 .45-.107 3.475 3.475 0 0 1 1.352-.42.813.813 0 0 1 .869.545 3.4 3.4 0 0 1 .165 1.014 5.144 5.144 0 0 1-.115 1.025 6.3 6.3 0 0 1-.219.783 20.465 20.465 0 0 1-1.093 3.129c-.116.23-.189.48-.287.719-.147.359-.3.715-.446 1.076-.105.26-.008.412.264.375a7.626 7.626 0 0 0 3.149-.953 8.761 8.761 0 0 0 2.072-1.742 18.478 18.478 0 0 0 1.581-2.215c.7-1.123 1.335-2.291 2.019-3.426.454-.754.909-1.512 1.432-2.217a9.42 9.42 0 0 1 2.322-2.357 7.394 7.394 0 0 1 2.276-.988 9.966 9.966 0 0 1 2.405-.121 1.447 1.447 0 0 1 .787.3 5.414 5.414 0 0 1 .864.842 1.88 1.88 0 0 1 .22 2.111 6.1 6.1 0 0 1-1.627 2.111c-.638.559-1.3 1.09-1.962 1.623q-.871.7-1.763 1.381c-.594.451-1.208.875-1.8 1.326-.263.2-.493.443-.751.65a6.24 6.24 0 0 0-1.355 1.445 2.234 2.234 0 0 0-.335.781 1.085 1.085 0 0 0 1.1 1.291 9.255 9.255 0 0 0 1.372-.145c.62-.109 1.238-.242 1.845-.406.411-.111.8-.295 1.2-.447a10.683 10.683 0 0 0 2.8-1.592 14.356 14.356 0 0 0 1.595-1.521 17.324 17.324 0 0 0 2.086-2.969c.569-.951 1.032-1.965 1.563-2.937.545-1 1.106-1.986 1.745-2.936a16.878 16.878 0 0 1 2.377-2.68 4.523 4.523 0 0 1 .59-.434 9.487 9.487 0 0 1 2.412-1.312c.561-.182 1.1-.422 1.666-.59a7.909 7.909 0 0 1 1.465-.322 1.764 1.764 0 0 1 1.293.377 3.9 3.9 0 0 1 .65.625 2.65 2.65 0 0 1-.138 3.49 2.842 2.842 0 0 1-1.322.939c-.383.111-.553.016-.557-.381-.005-.49 0-.98 0-1.473a1.985 1.985 0 0 0-.016-.346c-.049-.273-.208-.363-.464-.271a4.678 4.678 0 0 0-1.654 1 11.034 11.034 0 0 0-1.789 2.205c-.25.4-.565.768-.8 1.176a16.568 16.568 0 0 0-1.511 2.912c-.181.531-.419 1.043-.588 1.574a6.673 6.673 0 0 0-.223 1.139.4.4 0 0 0 .417.447.821.821 0 0 0 .259-.006c.868-.205 1.762-.25 2.635-.455a15.278 15.278 0 0 0 3.842-1.6 16.634 16.634 0 0 0 2.065-1.4c.658-.5 1.234-1.088 1.835-1.643a19.243 19.243 0 0 0 1.467-1.641c.347-.406.691-.812 1-1.244a16.119 16.119 0 0 0 1.006-1.508c.493-.863.979-1.734 1.4-2.635a20.207 20.207 0 0 0 .733-2.027c.106-.307.068-.424-.228-.547q-.893-.372-1.808-.686a4.774 4.774 0 0 1-1.418-.609 1.21 1.21 0 0 1-.392-.439 3.956 3.956 0 0 1-.3-.986.992.992 0 0 1 .862-1.152 10.713 10.713 0 0 1 1.4-.223 13.023 13.023 0 0 0 1.741-.277c.794-.139 1.588-.271 2.38-.42a8.686 8.686 0 0 0 .907-.244c.244-.072.479-.174.724-.244a7.048 7.048 0 0 0 1.676-.883 1.209 1.209 0 0 0 .35-.314 24.551 24.551 0 0 0 2.3-3.91c.32-.678.653-1.35.961-2.033a.713.713 0 0 1 .652-.479c.227-.012.465-.069.758-.114zm-39.993 25.9a2.6 2.6 0 0 1 .271-.158 7.818 7.818 0 0 0 2.7-1.73 4.4 4.4 0 0 0 1.251-2.127 1.4 1.4 0 0 0-.146-.963.442.442 0 0 0-.451-.266 2.42 2.42 0 0 0-1.013.32 3.893 3.893 0 0 0-1.35 1.252 9.679 9.679 0 0 0-1.4 3.186.366.366 0 0 0 .138.49z" class="cls-1" transform="translate(-145.055 -181.546)"/>
        <path id="Path_10776" d="M378.658 11581.032a5.234 5.234 0 0 1-.159 1.667.327.327 0 0 0-.01.085c-.066.63.119.841.752.757s1.274-.228 1.91-.348c.38-.072.76-.148 1.137-.233.2-.044.381-.132.577-.171.632-.129 1.281-.2 1.9-.376a6.994 6.994 0 0 1 1.668-.165.592.592 0 0 0 .214-.022.885.885 0 0 1 .918.191c.332.228.67.446 1 .68a2.447 2.447 0 0 1 .314.295 2.355 2.355 0 0 0 .265.283 7.244 7.244 0 0 1 2.053 2.734 5.023 5.023 0 0 1 .276.986c.011.042 0 .091.015.128a6.261 6.261 0 0 1 .164 2.267 3.6 3.6 0 0 1-.015.818 12.78 12.78 0 0 1-.869 3.039 20.978 20.978 0 0 1-.9 1.961c-.53.875-1.028 1.771-1.578 2.633-.51.8-1.034 1.595-1.618 2.34-.888 1.135-1.815 2.239-2.757 3.331-1.538 1.78-3.24 3.407-4.907 5.063-.481.481-.958.963-1.451 1.428-.239.229-.519.409-.761.632-.563.516-1.113 1.049-1.672 1.57-.411.383-.816.771-1.245 1.133-.557.472-1.168.883-1.695 1.386-.62.59-1.4.936-2.061 1.46a12.2 12.2 0 0 1-1.488.927 7.141 7.141 0 0 1-.972.46.679.679 0 0 1-.825-.153c-.738-.809-1.5-1.6-2.235-2.407a3.226 3.226 0 0 1-.67-1.3.482.482 0 0 1 .279-.642c.513-.261 1.034-.508 1.545-.772a7.8 7.8 0 0 0 .737-.448c.548-.368 1.1-.734 1.63-1.127.648-.479 1.278-.981 1.913-1.477q.747-.584 1.489-1.171.186-.148.363-.306c.107-.1.2-.208.311-.3.817-.708 1.646-1.4 2.451-2.121.516-.46 1-.952 1.493-1.442 1.427-1.429 2.862-2.852 4.266-4.3.621-.643 1.178-1.345 1.759-2.026.422-.491.853-.977 1.251-1.489.513-.66 1-1.339 1.492-2.016a21.226 21.226 0 0 0 1.841-3.026 8.119 8.119 0 0 0 .931-3 2.378 2.378 0 0 0-.94-2.123.914.914 0 0 0-.519-.158 8.413 8.413 0 0 0-2.6.334c-.327.1-.677.131-.994.252-.692.266-1.378.548-2.051.859-.5.231-.991.5-1.474.78-.533.308-1.057.63-1.576.958a2.176 2.176 0 0 0-.786 1.067c-.35.831-.659 1.682-.988 2.524-.062.16-.151.311-.2.474-.168.516-.325 1.033-.486 1.551-.013.043-.01.088-.026.128-.219.561-.452 1.115-.658 1.68-.162.441-.278.9-.441 1.343-.246.67-.52 1.33-.772 2-.12.32-.2.655-.328.972-.364.891-.7 1.8-1.13 2.659-.466.923-1 1.817-1.558 2.693a5.5 5.5 0 0 1-1.475 1.487 1.4 1.4 0 0 1-.318.128c-.426.162-.5.12-.495-.348a32.628 32.628 0 0 1 .318-4.485c.179-1.152.307-2.313.487-3.468.1-.652.262-1.3.4-1.949q.308-1.437.626-2.872c.078-.353.174-.7.266-1.048.072-.273 0-.374-.263-.282-.606.2-1.2.438-1.8.661q-.843.315-1.684.634a.281.281 0 0 0-.081.026 20.134 20.134 0 0 1-2.463 1.023 14.274 14.274 0 0 1-1.823.726c-.522.181-1.065.3-1.6.453-.135.04-.279.071-.337-.074a.366.366 0 0 1 .07-.3c.548-.669 1.092-1.345 1.67-1.988a22.445 22.445 0 0 1 2.54-2.4c.827-.673 1.634-1.371 2.457-2.049.756-.623 1.526-1.229 2.283-1.851a19.167 19.167 0 0 0 2.654-2.6 10.922 10.922 0 0 0 2.106-3.9 7.577 7.577 0 0 0 .349-2.214c-.005-.392.017-.782 0-1.17a.547.547 0 0 1 .4-.6 5.671 5.671 0 0 1 2.407-.39 1.776 1.776 0 0 1 1.562 1.186 5.516 5.516 0 0 1 .238 1.346 8.382 8.382 0 0 1 .007.909z" class="cls-1" transform="translate(0 -243.559)"/>
        <path id="Path_10777" d="M622.362 11589.517h3.375a1.24 1.24 0 0 1 .3.007c.1.027.268.1.267.146a.449.449 0 0 1-.148.324 5.683 5.683 0 0 1-.713.4c-.755.383-1.5.779-2.271 1.132-1.058.485-2.132.934-3.2 1.4-.525.229-1.041.483-1.575.687-.561.215-1.138.389-1.712.573a8.6 8.6 0 0 1-.865.238 1.594 1.594 0 0 1-.638.037c-.726-.169-1.447-.362-2.163-.57a5.013 5.013 0 0 1-.83-.347 1.414 1.414 0 0 1-.369-.294.585.585 0 0 1-.048-.887 2.238 2.238 0 0 1 .906-.717 22.557 22.557 0 0 1 2.926-1.03c.4-.108.819-.145 1.227-.221.353-.067.7-.146 1.054-.221a16.558 16.558 0 0 1 2.125-.337c.685-.053 1.365-.174 2.048-.262.1-.015.2-.012.3-.017z" class="cls-1" transform="translate(-209.762 -253.51)"/>
        <path id="Path_10778" d="M741.247 11455.232c0-.333-.008-.665 0-1s.1-.408.417-.414a1.223 1.223 0 0 1 1.259.57 2.061 2.061 0 0 1-.146 1.929 1.411 1.411 0 0 1-1.228.4c-.229-.013-.3-.2-.3-.408v-1.083z" class="cls-1" transform="translate(-317.814 -140.424)"/>
        <path id="Path_10779" d="M846.357 11468.567c-.216 0-.433.011-.649 0-.272-.02-.348-.157-.246-.414q.335-.841.672-1.681c.052-.132.084-.3.27-.292.167.009.171.162.215.283.194.527.39 1.052.6 1.574.162.405.089.529-.341.532h-.519z" class="cls-1" transform="translate(-404.634 -150.724)"/>
        <g id="Group_10088" transform="translate(389.37 11285.328)">
            <path id="Path_10780" d="M602.1 11286.089c0-.1.005-.2 0-.3-.021-.354-.124-.453-.486-.457-.4 0-.808.007-1.213.007h-62.812c-.806-.007-.806-.007-.806.776v38.678c.008.449.064.5.5.515h64.283c.49.01.531-.029.537-.536v-.128q-.003-19.282-.003-38.555zm-53.863 2.971a9.548 9.548 0 1 1-9.547 9.548 9.547 9.547 0 0 1 9.547-9.548zm-6.36 31.29c-.133-.058-.262-.123-.393-.181a.6.6 0 0 0-.814.147 1.278 1.278 0 0 1-.262.188c-.049-.1-.112-.172-.114-.243-.016-.763-.024-1.528-.03-2.29a.479.479 0 0 1 .067-.162c.253.059.263.271.313.434a3.063 3.063 0 0 0 .921 1.389 1.751 1.751 0 0 0 1.608.419 1.067 1.067 0 0 0 .6-1.825 5.425 5.425 0 0 0-1.039-.761 15.6 15.6 0 0 1-1.431-.887 2.284 2.284 0 0 1-1-2.093 2.234 2.234 0 0 1 3.1-1.854c.185.081.368.166.55.254.3.144.325.14.546-.11l.191-.221c.036.01.072.017.108.025v2.13c-.185-.05-.2-.215-.255-.329a3.016 3.016 0 0 0-1.2-1.273 1.256 1.256 0 0 0-1.461.059.9.9 0 0 0-.111 1.425 3.576 3.576 0 0 0 1 .745 7.1 7.1 0 0 1 1.952 1.336 1.738 1.738 0 0 1 .532 1.146c0 .044 0 .088.007.13a2.406 2.406 0 0 1-3.385 2.402zm9.7-.293c-.009.307-.081.367-.4.387-.072.006-.144 0-.217 0h-4.417c-.168 0-.336-.017-.53-.027.011-.1 0-.167.026-.2a1.4 1.4 0 0 0 .281-1.012q-.013-2.6 0-5.2a1.547 1.547 0 0 0-.292-1.142c-.023-.025-.013-.08-.025-.174a2.608 2.608 0 0 1 .366-.053q2.274-.007 4.547-.006c.405 0 .47.079.469.492v.927l-.12.05c-.1-.1-.2-.189-.295-.292a1.113 1.113 0 0 0-.87-.4c-.417 0-.833-.066-1.25-.077-.385-.01-.477.1-.477.491v1.862c0 .416.161.572.581.551a2.674 2.674 0 0 0 1.77-.572c.016-.015.054-.006.142-.015.044.53.012 1.056.029 1.689a2.722 2.722 0 0 0-2.008-.631c-.451-.015-.55.126-.544.566.008.576-.016 1.155-.026 1.729a3.75 3.75 0 0 0 0 .391c.025.287.108.392.4.417a2.911 2.911 0 0 0 2.443-.725 2.116 2.116 0 0 1 .229-.194c.019-.016.055-.009.109-.015a.708.708 0 0 1 .061.188c.021.331.032.664.022.995zm6.974-5.156l-.086.021a.988.988 0 0 1-.137-.189 3.508 3.508 0 0 0-.82-1.05 1.805 1.805 0 0 0-1.232-.564 1.779 1.779 0 0 0-1.654.752 2.833 2.833 0 0 0-.528 1.534 10.486 10.486 0 0 0 .009 1.472 4.585 4.585 0 0 0 .315 1.382 2.024 2.024 0 0 0 2.479 1.283 6.3 6.3 0 0 0 1.252-.745c.092-.059.175-.129.264-.193a.288.288 0 0 1 .011.415 3 3 0 0 1-1.94 1.464 3.674 3.674 0 0 1-3.238-.811 3.015 3.015 0 0 1-1.2-2.443c.005-.4.008-.807 0-1.21a2.88 2.88 0 0 1 .415-1.522 3.831 3.831 0 0 1 1.263-1.454 3.645 3.645 0 0 1 2.363-.518c.544.055 1.08.184 1.624.25a3.952 3.952 0 0 0 .732-.05 6.838 6.838 0 0 1 .112 2.175zm8.106 3.578a3.919 3.919 0 0 0 .288 1.732c.1.194.006.329-.192.327q-.8-.009-1.6-.038c-.221-.009-.414-.049-.491-.326s-.205-.321-.439-.14a2.907 2.907 0 0 1-2.082.561 3.678 3.678 0 0 1-1.236-.343 2.045 2.045 0 0 1-1.137-1.687 10 10 0 0 1-.085-1.249c-.011-1.185-.008-2.367 0-3.55a1.03 1.03 0 0 0-.263-.835c-.06-.058-.067-.171-.112-.3h2.81c-.039.11-.043.2-.088.232-.387.308-.341.741-.345 1.156-.013 1.28-.025 2.567-.011 3.848a2.1 2.1 0 0 0 .406 1.51 1.054 1.054 0 0 0 1.5.246 5.169 5.169 0 0 0 .93-.831.9.9 0 0 0 .185-.556c.015-1.516.008-3.032.01-4.547a.88.88 0 0 0-.294-.694.789.789 0 0 1-.2-.334c.955-.012 1.889-.058 2.874-.009a4.082 4.082 0 0 0-.256.739 17.441 17.441 0 0 0-.173 1.849c-.023 1.078-.024 2.16.005 3.239zm8.47 1.971c-.461 0-.924-.011-1.384.011a.607.607 0 0 1-.609-.318c-.22-.372-.448-.742-.664-1.115-.368-.636-.729-1.276-1.094-1.915-.028-.05-.053-.115-.1-.138-.083-.044-.194-.1-.266-.076a.3.3 0 0 0-.152.228c0 .82.016 1.642.046 2.462a1.342 1.342 0 0 0 .161.439c.044.1.1.2.17.315a1.914 1.914 0 0 1-.945.1c-.3.017-.606 0-.908 0h-1.048a3.348 3.348 0 0 1 .253-.326 1.187 1.187 0 0 0 .364-.9c0-.4-.006-.806 0-1.212.019-1.267.038-2.535.068-3.8a1.666 1.666 0 0 0-.444-1.392c-.027-.023-.028-.077-.064-.184a1.72 1.72 0 0 1 .314-.062c1.109.017 2.218.041 3.326.061a3.779 3.779 0 0 1 1.362.173 2.068 2.068 0 0 1 1.292 1.791 2 2 0 0 1-1.18 1.906c-.362.157-.4.223-.225.584.289.6.6 1.183.907 1.769a6.994 6.994 0 0 0 .5.856 7.183 7.183 0 0 0 .63.667 1.706 1.706 0 0 1-.306.075zm-5.849-12.293a9.548 9.548 0 1 1 9.547-9.549 9.549 9.549 0 0 1-9.543 9.548zm9.116 12.283c-.345.019-.693.012-1.039 0a3.4 3.4 0 0 1-1.021-.063.92.92 0 0 1 .143-.221.981.981 0 0 0 .33-.85c-.008-1.8-.01-3.609 0-5.41a1.127 1.127 0 0 0-.369-.928 1.369 1.369 0 0 1-.171-.229l.043-.1h3.044c.038.222-.121.309-.215.421a1.079 1.079 0 0 0-.273.708c-.011 1.5-.039 3-.051 4.5 0 .46.006.921.042 1.38a.882.882 0 0 0 .207.4 2.049 2.049 0 0 0 .329.285 2.138 2.138 0 0 1-.993.106zm6.1-6.263v4.5a2.793 2.793 0 0 0 .346 1.7 4.881 4.881 0 0 1-1.319.063c-.442.015-.886 0-1.37 0 .031-.133.027-.215.065-.26a1.559 1.559 0 0 0 .3-1.059q0-2.64.009-5.277c0-.347-.076-.438-.425-.447-.331-.009-.663.017-.995.017a.736.736 0 0 0-.657.346 3.612 3.612 0 0 1-.258.294 1.079 1.079 0 0 1-.086-.258c-.009-.258-.012-.519 0-.779.013-.317.106-.4.43-.4l4.8.014c.317 0 .635-.007.952 0 .434 0 .475.049.482.465 0 .231.014.461.014.692 0 .136-.017.271-.026.408-.578-.757-.578-.757-1.5-.783-.756-.021-.756-.021-.756.764zm6.013 6.183c.018-.037.026-.093.054-.105.4-.2.41-.516.266-.878-.106-.27-.221-.532-.326-.8a.436.436 0 0 0-.439-.289H588.2a.455.455 0 0 0-.441.294 5.71 5.71 0 0 0-.271.775.658.658 0 0 0 .337.807 2.2 2.2 0 0 1 .236.185 5.685 5.685 0 0 1-2 .034.778.778 0 0 1 .072-.223 13.462 13.462 0 0 0 1.552-3.03c.277-.729.588-1.442.881-2.163.26-.641.514-1.284.778-1.921.076-.185.151-.411.389-.415s.277.229.346.4c.295.719.581 1.443.873 2.166.151.372.308.745.46 1.119.4.976.777 1.956 1.192 2.921a6.671 6.671 0 0 0 .542.876c.05.08.1.159.159.242a10.474 10.474 0 0 1-2.795.004zm8.275-1.587a2.462 2.462 0 0 1-3.36 1.612c-.147-.062-.291-.127-.434-.2a.55.55 0 0 0-.739.124 1.746 1.746 0 0 1-.288.208 3.487 3.487 0 0 1-.07-.418c-.023-.721-.04-1.441-.057-2.161 0-.023.026-.049.049-.091.191-.011.22.151.25.277a3.09 3.09 0 0 0 1.006 1.534 1.775 1.775 0 0 0 1.927.333 1.122 1.122 0 0 0 .506-1.29 2 2 0 0 0-.911-1 17.355 17.355 0 0 1-1.871-1.164 2.165 2.165 0 0 1-.856-2.135 2.043 2.043 0 0 1 1.028-1.608 2.194 2.194 0 0 1 2.074-.11c.146.061.282.144.423.216.326.168.41.148.656-.146a1.083 1.083 0 0 1 .119-.12c.008-.008.027 0 .123-.009v2.158a3.928 3.928 0 0 1-.234-.358 3.556 3.556 0 0 0-.877-1.062 1.639 1.639 0 0 0-1.242-.4 1 1 0 0 0-.592 1.771c.442.3.892.583 1.34.873.4.258.816.489 1.195.771a2.214 2.214 0 0 1 .838 2.394zm-8.124-10.616a9.548 9.548 0 1 1 9.547-9.549 9.549 9.549 0 0 1-9.544 9.548z" class="cls-1" transform="translate(-536.781 -11285.328)"/>
        </g>
    </g>
</svg>
